<svg width="270" height="246" viewBox="0 0 270 246" fill="none" xmlns="http://www.w3.org/2000/svg">
<rect width="270" height="246" fill="#F3F3F3"/>
<g clip-path="url(#clip0)">
<path d="M152.687 64.8815C153.417 64.8815 154.008 64.2903 154.008 63.561C154.008 62.8317 153.417 62.2405 152.687 62.2405C151.958 62.2405 151.367 62.8317 151.367 63.561C151.367 64.2903 151.958 64.8815 152.687 64.8815Z" fill="#C6C6C6"/>
<path d="M145.106 74.8197C145.118 74.8073 145.094 74.8316 145.106 74.8197V74.8197Z" fill="#C6C6C6"/>
<path d="M141.427 71.1424C141.417 71.1525 141.437 71.1324 141.427 71.1424V71.1424Z" fill="#C6C6C6"/>
<path d="M172.45 60.6316H170.837C170.32 58.5295 169.492 56.5313 168.369 54.6765L169.511 53.5344C170.798 52.2469 170.798 50.1522 169.511 48.865L166.887 46.2416C165.6 44.9543 163.505 44.9543 162.218 46.2416L161.076 47.3837C159.221 46.2605 157.222 45.4325 155.121 44.9155V43.3016C155.121 41.4811 153.64 40 151.819 40H148.109C146.288 40 144.807 41.4811 144.807 43.3016V44.9152C142.705 45.4324 140.707 46.2602 138.852 47.3834L137.71 46.2413C136.422 44.9543 134.328 44.9543 133.04 46.2413L130.417 48.8647C129.13 50.152 129.13 52.2467 130.417 53.5342L131.559 54.6762C130.436 56.5313 129.608 58.5297 129.091 60.6313H127.477C125.657 60.6313 124.176 62.1124 124.176 63.9331V67.6431C124.176 69.4636 125.657 70.9448 127.477 70.9448H129.091C129.605 73.0326 130.428 75.0238 131.542 76.8723L131.827 77.3613L110.001 99.1866C105.759 97.6595 100.905 98.7135 97.6883 101.929C94.4085 105.209 93.3641 110.129 95.0275 114.463C95.1726 114.841 95.499 115.12 95.8949 115.204C96.2909 115.288 96.7025 115.166 96.9889 114.88L103.118 108.751L106.146 109.997L107.488 113.137L101.367 119.258C101.081 119.544 100.959 119.956 101.043 120.352C101.128 120.748 101.406 121.075 101.784 121.22C103.153 121.745 104.581 122 105.996 122C109.063 122 112.074 120.803 114.318 118.559C117.534 115.342 118.588 110.488 117.061 106.246L121.109 102.197C121.576 101.73 121.576 100.973 121.109 100.506C120.643 100.04 119.885 100.04 119.419 100.506L114.813 105.112C114.463 105.462 114.365 105.991 114.565 106.442C116.125 109.959 115.347 114.149 112.627 116.868C110.478 119.017 107.446 119.961 104.515 119.491L109.751 114.256C110.096 113.911 110.196 113.39 110.005 112.941L108.153 108.607C108.03 108.319 107.798 108.09 107.508 107.971L103.291 106.236C102.845 106.053 102.332 106.155 101.991 106.497L96.7557 111.732C96.2861 108.801 97.2304 105.769 99.3791 103.62C102.098 100.9 106.288 100.122 109.805 101.682C110.256 101.882 110.785 101.784 111.135 101.435L141.427 71.1424C141.777 70.7928 141.875 70.2641 141.674 69.8121C140.114 66.2954 140.893 62.1059 143.612 59.3867C145.761 57.2377 148.794 56.2933 151.724 56.7633C151.721 56.767 151.724 56.7633 151.721 56.767L146.473 62.0141C146.464 62.0235 146.455 62.033 146.446 62.0426C146.445 62.044 146.443 62.0453 146.442 62.0468C146.44 62.0485 146.439 62.0503 146.437 62.0522C146.428 62.0616 146.42 62.0711 146.412 62.0807C146.41 62.083 146.408 62.0852 146.406 62.0874C146.403 62.091 146.4 62.0945 146.397 62.098C146.394 62.1015 146.391 62.1052 146.389 62.1087C146.387 62.111 146.385 62.1131 146.383 62.1153C146.381 62.1187 146.378 62.1222 146.375 62.1256C146.373 62.1281 146.371 62.1307 146.369 62.1332C146.366 62.1369 146.364 62.1404 146.361 62.1441C146.359 62.1464 146.358 62.1486 146.356 62.1509C146.353 62.1542 146.351 62.1577 146.349 62.1611C146.347 62.1638 146.345 62.1666 146.343 62.1693C146.34 62.1726 146.338 62.176 146.336 62.1792C146.334 62.1819 146.332 62.1847 146.33 62.1874C146.328 62.1907 146.326 62.1941 146.323 62.1975C146.321 62.2003 146.32 62.2034 146.318 62.2063C146.315 62.2098 146.313 62.2133 146.311 62.2168C146.309 62.2194 146.308 62.222 146.306 62.2245C146.304 62.2285 146.301 62.2325 146.299 62.2365C146.297 62.2389 146.296 62.2412 146.294 62.2436C146.292 62.2473 146.29 62.2513 146.288 62.2551C146.286 62.2577 146.284 62.2602 146.283 62.2628C146.281 62.2663 146.279 62.2699 146.277 62.2734C146.275 62.2763 146.274 62.2793 146.272 62.2822C146.27 62.2857 146.268 62.2892 146.266 62.2928C146.265 62.2958 146.263 62.2987 146.262 62.3016C146.259 62.3057 146.257 62.3099 146.255 62.3141C146.254 62.3165 146.253 62.3187 146.252 62.3209C146.25 62.3249 146.248 62.329 146.246 62.3328C146.244 62.3355 146.243 62.3382 146.242 62.3411C146.24 62.3448 146.238 62.3485 146.236 62.3522C146.235 62.3552 146.234 62.3581 146.232 62.361C146.23 62.365 146.229 62.369 146.227 62.373C146.226 62.3757 146.224 62.3783 146.223 62.3808C146.222 62.3844 146.22 62.3879 146.219 62.3916C146.217 62.3949 146.216 62.3983 146.214 62.4018C146.213 62.4052 146.212 62.4086 146.21 62.4119C146.209 62.4153 146.208 62.4185 146.206 62.4217C146.205 62.4258 146.203 62.43 146.202 62.4342C146.201 62.4369 146.199 62.4395 146.198 62.4422C146.197 62.4464 146.195 62.4505 146.194 62.4547C146.193 62.4574 146.192 62.4601 146.191 62.4628C146.19 62.4672 146.188 62.4717 146.187 62.4761C146.186 62.4787 146.185 62.4811 146.184 62.4835C146.183 62.4877 146.181 62.4918 146.18 62.4958C146.179 62.499 146.178 62.5019 146.177 62.505C146.176 62.5085 146.175 62.5122 146.174 62.5157C146.173 62.5192 146.172 62.5226 146.171 62.5261C146.17 62.5296 146.169 62.5332 146.168 62.5367C146.167 62.54 146.166 62.5436 146.165 62.5469C146.164 62.5508 146.163 62.5546 146.162 62.5586C146.161 62.5618 146.16 62.5649 146.16 62.5681C146.158 62.5724 146.157 62.5766 146.156 62.5809C146.156 62.5836 146.155 62.5862 146.154 62.5889C146.153 62.5934 146.152 62.598 146.151 62.6025C146.151 62.6052 146.15 62.6079 146.15 62.6107C146.149 62.6147 146.148 62.6188 146.147 62.623C146.146 62.626 146.146 62.6291 146.145 62.6321C146.145 62.6365 146.144 62.6406 146.143 62.6449C146.142 62.6478 146.142 62.6507 146.141 62.6536C146.141 62.6578 146.14 62.6619 146.139 62.6661C146.139 62.6693 146.138 62.6723 146.138 62.6755C146.137 62.6795 146.136 62.6835 146.136 62.6874C146.135 62.6906 146.135 62.6938 146.134 62.697C146.134 62.7016 146.133 62.7063 146.133 62.7108C146.132 62.7132 146.132 62.7156 146.132 62.718C146.131 62.7228 146.131 62.7277 146.13 62.7327C146.13 62.7351 146.13 62.7375 146.129 62.7399C146.129 62.7446 146.128 62.7494 146.128 62.7542C146.128 62.7569 146.128 62.7595 146.127 62.7622C146.127 62.7665 146.127 62.771 146.126 62.7753C146.126 62.7784 146.126 62.7812 146.126 62.7841C146.125 62.7886 146.125 62.7931 146.125 62.7976C146.125 62.8005 146.124 62.8032 146.124 62.8061C146.124 62.8107 146.124 62.8153 146.124 62.8198C146.124 62.8224 146.124 62.825 146.124 62.8275C146.123 62.8325 146.123 62.8376 146.123 62.8426C146.123 62.8448 146.123 62.8471 146.123 62.8493C146.123 62.8543 146.123 62.8592 146.123 62.8642C146.123 62.8666 146.123 62.869 146.123 62.8714C146.123 62.8767 146.123 62.8818 146.123 62.8871C146.123 62.889 146.123 62.8909 146.123 62.8929C146.124 62.8982 146.124 62.9033 146.124 62.9086C146.124 62.9108 146.124 62.913 146.124 62.9153C146.124 62.9203 146.125 62.9254 146.125 62.9303C146.125 62.9326 146.125 62.9348 146.125 62.9371C146.126 62.9424 146.126 62.9478 146.126 62.9531C146.127 62.9548 146.127 62.9568 146.127 62.9585C146.127 62.9638 146.128 62.9693 146.128 62.9745C146.128 62.9766 146.129 62.9787 146.129 62.981C146.129 62.9862 146.13 62.9915 146.131 62.9968C146.131 62.9987 146.131 63.0008 146.131 63.0027C146.132 63.008 146.133 63.0131 146.133 63.0184C146.134 63.0207 146.134 63.0228 146.134 63.025C146.135 63.0303 146.136 63.0356 146.136 63.0409C146.137 63.0428 146.137 63.0447 146.137 63.0466C146.138 63.0521 146.139 63.0573 146.14 63.0628C146.14 63.0649 146.14 63.067 146.141 63.069C146.142 63.0742 146.143 63.0793 146.144 63.0844C146.144 63.0865 146.145 63.0884 146.145 63.0905C146.146 63.0958 146.147 63.1012 146.148 63.1067C146.148 63.1086 146.149 63.1105 146.149 63.1124C146.15 63.1179 146.152 63.1235 146.153 63.1288C146.153 63.1305 146.154 63.1321 146.154 63.1339C146.155 63.139 146.157 63.1443 146.158 63.1494C146.158 63.1518 146.159 63.1542 146.16 63.1566C146.161 63.1615 146.162 63.1664 146.163 63.1711L146.165 63.1778C146.167 63.1829 146.168 63.188 146.169 63.1932C146.17 63.1952 146.171 63.1972 146.171 63.1992C146.173 63.2042 146.174 63.2092 146.176 63.2141C146.177 63.2167 146.177 63.2191 146.178 63.2215C146.179 63.2262 146.181 63.2306 146.182 63.2353C146.183 63.238 146.184 63.2407 146.185 63.2433C146.186 63.2476 146.188 63.2521 146.19 63.2566C146.19 63.2593 146.191 63.2622 146.192 63.2649C146.194 63.2691 146.195 63.2731 146.197 63.2772C146.198 63.2806 146.199 63.2838 146.201 63.2872C146.202 63.291 146.203 63.2947 146.205 63.2985C146.206 63.3017 146.207 63.305 146.209 63.3082C146.21 63.312 146.212 63.3158 146.213 63.3197C146.214 63.3213 146.215 63.3229 146.215 63.3243L147.966 67.5257C148.085 67.8118 148.311 68.0403 148.595 68.1632L152.913 70.0308C153.363 70.2253 153.887 70.1254 154.233 69.7788L159.484 64.5278C159.954 67.4581 159.009 70.491 156.861 72.6397C154.141 75.359 149.952 76.1375 146.435 74.5778C145.983 74.3774 145.455 74.4754 145.105 74.8252L122.801 97.1244C122.334 97.5914 122.334 98.3483 122.801 98.8152C123.268 99.2819 124.025 99.2819 124.492 98.8152L139.017 84.2902C140.826 85.3631 142.771 86.1591 144.808 86.6605V88.2743C144.808 90.0948 146.289 91.5759 148.11 91.5759H151.82C153.64 91.5759 155.121 90.0948 155.121 88.2743V86.6605C157.224 86.1434 159.222 85.3152 161.077 84.1923L162.219 85.3344C162.842 85.9579 163.672 86.3013 164.553 86.3013C165.435 86.3013 166.264 85.9579 166.888 85.3344L169.511 82.711C170.135 82.0875 170.478 81.2582 170.478 80.3764C170.478 79.4944 170.135 78.6655 169.511 78.0417L168.369 76.8997C169.492 75.0446 170.321 73.0462 170.838 70.9444H172.451C174.272 70.9444 175.753 69.4633 175.753 67.6428V63.9328C175.752 62.1127 174.271 60.6316 172.45 60.6316ZM155.551 65.0744L153.131 67.4951L149.987 66.0507L148.736 63.1331L151.744 60.1252L155.112 61.1358L156.122 64.5036L155.551 65.0744ZM173.361 67.6434C173.361 68.1455 172.953 68.5541 172.451 68.5541H170.23C169.469 68.5541 168.799 69.0959 168.638 69.8424C168.154 72.0816 167.278 74.1955 166.034 76.1259C165.62 76.7674 165.711 77.6241 166.249 78.1624L167.82 79.7332C167.992 79.9052 168.087 80.1339 168.087 80.3771C168.087 80.6203 167.992 80.849 167.82 81.0211L165.197 83.6444C164.842 83.9997 164.264 83.9997 163.909 83.6444L162.338 82.0736C161.8 81.5355 160.943 81.4448 160.301 81.8584C158.371 83.1026 156.257 83.9787 154.018 84.4625C153.271 84.6235 152.73 85.2931 152.73 86.0546V88.2752C152.73 88.7773 152.321 89.1859 151.819 89.1859H148.109C147.607 89.1859 147.198 88.7773 147.198 88.2752V86.0548C147.198 85.2933 146.656 84.6235 145.91 84.4625C144.108 84.0733 142.382 83.4271 140.768 82.539L143.038 80.2696C145.189 81.2983 147.565 81.8387 149.964 81.8387C157.627 81.8387 164.251 76.3876 165.716 68.8771C165.843 68.2291 165.42 67.6013 164.772 67.475C164.124 67.3483 163.496 67.7713 163.37 68.4196C162.123 74.8097 156.486 79.448 149.965 79.448C148.209 79.448 146.468 79.1081 144.851 78.4566L146.239 77.0689C150.482 78.5958 155.336 77.5423 158.552 74.326C161.832 71.0461 162.876 66.1264 161.213 61.7921C161.068 61.4141 160.741 61.1353 160.345 61.0512C159.95 60.9673 159.538 61.0889 159.251 61.3751L158.043 62.5833L157.218 59.8321C157.102 59.4471 156.801 59.146 156.416 59.0307L153.665 58.2052L154.873 56.9972C155.159 56.711 155.281 56.2992 155.197 55.9031C155.113 55.5072 154.834 55.1807 154.456 55.0357C150.122 53.3725 145.202 54.4169 141.922 57.6964C138.706 60.9128 137.653 65.7672 139.18 70.0095L137.597 71.592C136.749 69.7856 136.305 67.806 136.305 65.7887C136.305 58.2568 142.433 52.1293 149.965 52.1293C156.811 52.1293 162.634 57.2409 163.51 64.0197C163.595 64.6746 164.194 65.1368 164.849 65.0523C165.504 64.9675 165.966 64.3682 165.881 63.7135C164.852 55.7465 158.009 49.7385 149.965 49.7385C141.115 49.7385 133.914 56.9387 133.914 65.7888C133.914 68.4463 134.57 71.0489 135.817 73.3724L133.576 75.6135C132.499 73.8223 131.731 71.881 131.291 69.8427C131.129 69.0962 130.46 68.5544 129.698 68.5544H127.478C126.976 68.5544 126.567 68.1459 126.567 67.6438V63.9337C126.567 63.4316 126.976 63.0229 127.478 63.0229H129.698C130.46 63.0229 131.129 62.4813 131.29 61.7348C131.774 59.4956 132.65 57.3817 133.895 55.4513C134.308 54.8093 134.217 53.9526 133.679 53.4148L132.108 51.8441C131.753 51.4889 131.753 50.911 132.108 50.556L134.732 47.9326C135.087 47.5774 135.665 47.5774 136.02 47.9326L137.59 49.5032C138.129 50.0419 138.985 50.1325 139.627 49.7188C141.558 48.4744 143.672 47.5983 145.911 47.1147C146.657 46.9531 147.199 46.2836 147.199 45.5227V43.3016C147.199 42.7995 147.607 42.391 148.109 42.391H151.82C152.322 42.391 152.73 42.7995 152.73 43.3016V45.5222C152.73 46.283 153.272 46.9527 154.018 47.1143C156.257 47.5979 158.371 48.4739 160.301 49.7182C160.943 50.132 161.8 50.0412 162.339 49.5031L163.909 47.9323C164.265 47.577 164.842 47.577 165.197 47.9323L167.821 50.5556C168.176 50.9107 168.176 51.4886 167.821 51.8436L166.25 53.4141C165.712 53.9524 165.621 54.8091 166.035 55.4515C167.279 57.3815 168.155 59.4955 168.639 61.7344C168.8 62.4811 169.469 63.0228 170.231 63.0228H172.451C172.953 63.0228 173.362 63.4313 173.362 63.9336V67.6434H173.361Z" fill="#C6C6C6"/>
<path d="M118.568 63.6793H117.898C117.771 63.3113 117.622 62.9517 117.453 62.6018L117.926 62.1285C118.625 61.4293 118.625 60.2917 117.926 59.5923L115.841 57.5073C115.502 57.1686 115.052 56.9822 114.573 56.9822C114.094 56.9822 113.643 57.1688 113.305 57.5073L112.831 57.9806C112.482 57.8111 112.122 57.6622 111.754 57.5349V56.8651C111.754 55.8761 110.949 55.0717 109.96 55.0717H107.012C106.023 55.0717 105.218 55.8761 105.218 56.8651V57.5349C104.85 57.6622 104.491 57.811 104.141 57.9806L103.668 57.5075C103.329 57.1688 102.879 56.9822 102.399 56.9822C101.92 56.9822 101.47 57.1686 101.131 57.5073L99.0461 59.5924C98.3472 60.2917 98.3472 61.4293 99.0463 62.1287L99.5195 62.6018C99.3501 62.9515 99.2011 63.3113 99.0738 63.6793H98.404C97.4151 63.6793 96.6106 64.4838 96.6106 65.4727V68.4214C96.6108 69.4104 97.4152 70.2148 98.4042 70.2148H99.074C99.2013 70.5829 99.3501 70.9424 99.5197 71.2924L99.0463 71.7656C98.3473 72.4649 98.3473 73.6025 99.0464 74.3019L101.132 76.3868C101.47 76.7255 101.921 76.912 102.4 76.912C102.879 76.912 103.329 76.7254 103.668 76.3868L104.141 75.9136C104.491 76.083 104.85 76.2319 105.218 76.3593V77.029C105.218 78.018 106.023 78.8225 107.012 78.8225H109.96C110.949 78.8225 111.754 78.018 111.754 77.029V76.3593C112.122 76.2319 112.482 76.0832 112.831 75.9136L113.305 76.3867C113.643 76.7254 114.094 76.912 114.573 76.912C115.052 76.912 115.502 76.7255 115.841 76.3868L117.926 74.3017C118.625 73.6025 118.625 72.4649 117.926 71.7655L117.453 71.2924C117.622 70.9426 117.771 70.5829 117.898 70.2148H118.568C119.557 70.2148 120.362 69.4104 120.362 68.4214V65.4727C120.362 64.4839 119.557 63.6793 118.568 63.6793ZM117.97 67.8237H117.004C116.452 67.8237 115.972 68.2013 115.842 68.7375C115.658 69.498 115.359 70.22 114.954 70.8832C114.667 71.3544 114.739 71.961 115.13 72.3512L115.812 73.0333L114.572 74.2731L113.89 73.5908C113.5 73.201 112.893 73.1284 112.422 73.4154C111.759 73.8203 111.037 74.1188 110.276 74.3032C109.74 74.4331 109.363 74.9132 109.363 75.4651V76.431H107.609V75.4651C107.609 74.9132 107.231 74.4332 106.695 74.3032C105.935 74.1188 105.213 73.8203 104.549 73.4154C104.078 73.1281 103.472 73.2002 103.082 73.5908L102.399 74.2731L101.16 73.0333L101.842 72.3512C102.232 71.961 102.305 71.3544 102.017 70.8832C101.613 70.22 101.314 69.498 101.13 68.7375C101 68.2013 100.519 67.8237 99.9677 67.8237H99.0017V66.0703H99.9677C100.519 66.0703 101 65.6926 101.13 65.1564C101.314 64.396 101.613 63.674 102.017 63.0108C102.305 62.5396 102.232 61.9329 101.842 61.5428L101.16 60.8607L102.399 59.6209L103.082 60.3032C103.472 60.6932 104.078 60.7657 104.549 60.4786C105.213 60.0737 105.935 59.7752 106.695 59.5908C107.231 59.4609 107.609 58.9808 107.609 58.4289V57.463H109.362V58.4289C109.362 58.9808 109.74 59.4608 110.276 59.5908C111.037 59.7752 111.759 60.0737 112.422 60.4786C112.893 60.7656 113.5 60.6935 113.89 60.3032L114.572 59.6209L115.812 60.8607L115.13 61.5428C114.739 61.9329 114.667 62.5396 114.954 63.0108C115.359 63.674 115.658 64.396 115.842 65.1564C115.972 65.6926 116.452 66.0703 117.004 66.0703H117.97V67.8237H117.97Z" fill="#C6C6C6"/>
<path d="M108.486 61.1289C105.278 61.1289 102.668 63.739 102.668 66.9469C102.668 70.1549 105.278 72.765 108.486 72.765C111.694 72.765 114.304 70.1549 114.304 66.9469C114.304 63.739 111.694 61.1289 108.486 61.1289ZM108.486 70.3741C106.596 70.3741 105.059 68.8368 105.059 66.9471C105.059 65.0574 106.596 63.5201 108.486 63.5201C110.375 63.5201 111.913 65.0574 111.913 66.9471C111.913 68.8366 110.375 70.3741 108.486 70.3741Z" fill="#C6C6C6"/>
<path d="M160.33 103.211H159.66C159.533 102.843 159.384 102.483 159.215 102.133L159.688 101.66C160.387 100.961 160.387 99.8229 159.688 99.1235L157.603 97.0386C157.264 96.6998 156.814 96.5134 156.335 96.5134C155.856 96.5134 155.405 96.7 155.067 97.0386L154.594 97.5118C154.244 97.3424 153.884 97.1934 153.516 97.0661V96.3963C153.516 95.4074 152.712 94.6029 151.723 94.6029H148.774C147.785 94.6029 146.981 95.4074 146.981 96.3963V97.0661C146.613 97.1934 146.253 97.3422 145.903 97.5118L145.43 97.0387C145.091 96.7 144.641 96.5134 144.162 96.5134C143.683 96.5134 143.233 96.6998 142.894 97.0386L140.809 99.1237C140.11 99.8229 140.11 100.961 140.809 101.66L141.282 102.133C141.113 102.483 140.964 102.843 140.836 103.211H140.166C139.178 103.211 138.373 104.015 138.373 105.004V107.953C138.373 108.942 139.178 109.746 140.166 109.746H140.836C140.964 110.114 141.112 110.474 141.282 110.824L140.809 111.297C140.11 111.996 140.11 113.134 140.809 113.833L142.894 115.918C143.233 116.257 143.683 116.443 144.162 116.443C144.641 116.443 145.091 116.257 145.43 115.918L145.903 115.445C146.253 115.614 146.613 115.763 146.981 115.891V116.56C146.981 117.549 147.785 118.354 148.774 118.354H151.723C152.712 118.354 153.516 117.549 153.516 116.56V115.891C153.884 115.763 154.244 115.614 154.594 115.445L155.067 115.918C155.405 116.257 155.856 116.443 156.335 116.443C156.814 116.443 157.264 116.257 157.603 115.918L159.688 113.833C160.387 113.134 160.387 111.996 159.688 111.297L159.215 110.824C159.384 110.474 159.533 110.114 159.66 109.746H160.33C161.319 109.746 162.124 108.942 162.124 107.953V105.004C162.124 104.015 161.319 103.211 160.33 103.211ZM159.733 107.355H158.767C158.215 107.355 157.735 107.733 157.605 108.269C157.421 109.029 157.122 109.751 156.717 110.414C156.43 110.886 156.502 111.492 156.892 111.882L157.575 112.565L156.335 113.804L155.653 113.122C155.263 112.732 154.656 112.66 154.185 112.947C153.522 113.352 152.8 113.65 152.039 113.834C151.503 113.964 151.125 114.444 151.125 114.996V115.962H149.372V114.996C149.372 114.444 148.994 113.964 148.458 113.834C147.698 113.65 146.976 113.352 146.312 112.947C145.841 112.659 145.235 112.732 144.845 113.122L144.162 113.804L142.923 112.565L143.605 111.882C143.995 111.492 144.067 110.886 143.78 110.414C143.376 109.751 143.077 109.029 142.893 108.269C142.763 107.733 142.282 107.355 141.731 107.355H140.765V105.602H141.731C142.282 105.602 142.762 105.224 142.893 104.688C143.077 103.927 143.376 103.205 143.78 102.542C144.068 102.071 143.995 101.464 143.605 101.074L142.923 100.392L144.162 99.1522L144.845 99.8344C145.235 100.224 145.841 100.297 146.312 100.01C146.976 99.6049 147.698 99.3064 148.458 99.1221C148.994 98.9922 149.372 98.512 149.372 97.9601V96.9942H151.125V97.9601C151.125 98.512 151.503 98.992 152.039 99.1221C152.8 99.3064 153.522 99.6049 154.185 100.01C154.656 100.297 155.262 100.225 155.653 99.8344L156.335 99.1522L157.575 100.392L156.892 101.074C156.502 101.464 156.43 102.071 156.717 102.542C157.122 103.205 157.421 103.927 157.605 104.688C157.735 105.224 158.215 105.602 158.767 105.602H159.733V107.355Z" fill="#C6C6C6"/>
<path d="M150.248 100.66C147.04 100.66 144.43 103.27 144.43 106.478C144.43 109.686 147.041 112.296 150.248 112.296C153.456 112.296 156.066 109.686 156.066 106.478C156.066 103.27 153.457 100.66 150.248 100.66ZM150.248 109.905C148.359 109.905 146.821 108.368 146.821 106.478C146.821 104.589 148.359 103.051 150.248 103.051C152.138 103.051 153.675 104.589 153.675 106.478C153.675 108.368 152.138 109.905 150.248 109.905Z" fill="#C6C6C6"/>
</g>
<path d="M79.6423 166.4C80.7343 166.4 81.6823 166.58 82.4863 166.94C83.3023 167.3 83.9263 167.816 84.3583 168.488C84.7903 169.16 85.0063 169.958 85.0063 170.882C85.0063 171.794 84.7903 172.592 84.3583 173.276C83.9263 173.948 83.3023 174.464 82.4863 174.824C81.6823 175.184 80.7343 175.364 79.6423 175.364H76.7983V179H74.4583V166.4H79.6423ZM79.5343 173.384C80.5543 173.384 81.3283 173.168 81.8563 172.736C82.3843 172.304 82.6483 171.686 82.6483 170.882C82.6483 170.078 82.3843 169.46 81.8563 169.028C81.3283 168.596 80.5543 168.38 79.5343 168.38H76.7983V173.384H79.5343ZM95.9329 174.248C95.9329 174.404 95.9209 174.626 95.8969 174.914H88.3549C88.4869 175.622 88.8289 176.186 89.3809 176.606C89.9449 177.014 90.6409 177.218 91.4689 177.218C92.5249 177.218 93.3949 176.87 94.0789 176.174L95.2849 177.56C94.8529 178.076 94.3069 178.466 93.6469 178.73C92.9869 178.994 92.2429 179.126 91.4149 179.126C90.3589 179.126 89.4289 178.916 88.6249 178.496C87.8209 178.076 87.1969 177.494 86.7529 176.75C86.3209 175.994 86.1049 175.142 86.1049 174.194C86.1049 173.258 86.3149 172.418 86.7349 171.674C87.1669 170.918 87.7609 170.33 88.5169 169.91C89.2729 169.49 90.1249 169.28 91.0729 169.28C92.0089 169.28 92.8429 169.49 93.5749 169.91C94.3189 170.318 94.8949 170.9 95.3029 171.656C95.7229 172.4 95.9329 173.264 95.9329 174.248ZM91.0729 171.08C90.3529 171.08 89.7409 171.296 89.2369 171.728C88.7449 172.148 88.4449 172.712 88.3369 173.42H93.7909C93.6949 172.724 93.4009 172.16 92.9089 171.728C92.4169 171.296 91.8049 171.08 91.0729 171.08ZM105.774 171.296H100.644V179H98.3938V169.388H105.774V171.296ZM116.554 169.388L112.054 179.774C111.634 180.818 111.124 181.55 110.524 181.97C109.924 182.402 109.198 182.618 108.346 182.618C107.866 182.618 107.392 182.54 106.924 182.384C106.456 182.228 106.072 182.012 105.772 181.736L106.672 180.08C106.888 180.284 107.14 180.446 107.428 180.566C107.728 180.686 108.028 180.746 108.328 180.746C108.724 180.746 109.048 180.644 109.3 180.44C109.564 180.236 109.804 179.894 110.02 179.414L110.182 179.036L105.988 169.388H108.328L111.352 176.498L114.394 169.388H116.554ZM126.231 169.388V179H123.981V171.296H120.381L120.291 173.204C120.231 174.476 120.111 175.544 119.931 176.408C119.763 177.26 119.469 177.938 119.049 178.442C118.641 178.934 118.077 179.18 117.357 179.18C117.021 179.18 116.607 179.114 116.115 178.982L116.223 177.092C116.391 177.128 116.535 177.146 116.655 177.146C117.111 177.146 117.453 176.966 117.681 176.606C117.909 176.234 118.053 175.796 118.113 175.292C118.185 174.776 118.245 174.044 118.293 173.096L118.455 169.388H126.231ZM129.261 169.388H131.511V175.724L136.821 169.388H138.873V179H136.623V172.664L131.331 179H129.261V169.388ZM147.228 169.28C148.164 169.28 148.998 169.484 149.73 169.892C150.474 170.3 151.056 170.876 151.476 171.62C151.896 172.364 152.106 173.222 152.106 174.194C152.106 175.166 151.896 176.03 151.476 176.786C151.056 177.53 150.474 178.106 149.73 178.514C148.998 178.922 148.164 179.126 147.228 179.126C145.932 179.126 144.906 178.694 144.15 177.83V182.492H141.9V169.388H144.042V170.648C144.414 170.192 144.87 169.85 145.41 169.622C145.962 169.394 146.568 169.28 147.228 169.28ZM146.976 177.2C147.804 177.2 148.482 176.924 149.01 176.372C149.55 175.82 149.82 175.094 149.82 174.194C149.82 173.294 149.55 172.568 149.01 172.016C148.482 171.464 147.804 171.188 146.976 171.188C146.436 171.188 145.95 171.314 145.518 171.566C145.086 171.806 144.744 172.154 144.492 172.61C144.24 173.066 144.114 173.594 144.114 174.194C144.114 174.794 144.24 175.322 144.492 175.778C144.744 176.234 145.086 176.588 145.518 176.84C145.95 177.08 146.436 177.2 146.976 177.2ZM158.629 179.126C157.657 179.126 156.781 178.916 156.001 178.496C155.221 178.076 154.609 177.494 154.165 176.75C153.733 175.994 153.517 175.142 153.517 174.194C153.517 173.246 153.733 172.4 154.165 171.656C154.609 170.912 155.221 170.33 156.001 169.91C156.781 169.49 157.657 169.28 158.629 169.28C159.613 169.28 160.495 169.49 161.275 169.91C162.055 170.33 162.661 170.912 163.093 171.656C163.537 172.4 163.759 173.246 163.759 174.194C163.759 175.142 163.537 175.994 163.093 176.75C162.661 177.494 162.055 178.076 161.275 178.496C160.495 178.916 159.613 179.126 158.629 179.126ZM158.629 177.2C159.457 177.2 160.141 176.924 160.681 176.372C161.221 175.82 161.491 175.094 161.491 174.194C161.491 173.294 161.221 172.568 160.681 172.016C160.141 171.464 159.457 171.188 158.629 171.188C157.801 171.188 157.117 171.464 156.577 172.016C156.049 172.568 155.785 173.294 155.785 174.194C155.785 175.094 156.049 175.82 156.577 176.372C157.117 176.924 157.801 177.2 158.629 177.2ZM172.948 173.996C174.136 174.356 174.73 175.124 174.73 176.3C174.73 177.164 174.406 177.83 173.758 178.298C173.11 178.766 172.15 179 170.878 179H165.982V169.388H170.68C171.856 169.388 172.774 169.604 173.434 170.036C174.094 170.468 174.424 171.08 174.424 171.872C174.424 172.364 174.292 172.79 174.028 173.15C173.776 173.51 173.416 173.792 172.948 173.996ZM168.124 173.402H170.482C171.646 173.402 172.228 173 172.228 172.196C172.228 171.416 171.646 171.026 170.482 171.026H168.124V173.402ZM170.698 177.362C171.934 177.362 172.552 176.96 172.552 176.156C172.552 175.736 172.408 175.424 172.12 175.22C171.832 175.004 171.382 174.896 170.77 174.896H168.124V177.362H170.698ZM181.122 175.148H179.376V179H177.126V169.388H179.376V173.276H181.176L184.02 169.388H186.432L182.94 174.014L186.666 179H184.02L181.122 175.148ZM191.659 169.28C193.075 169.28 194.155 169.622 194.899 170.306C195.655 170.978 196.033 171.998 196.033 173.366V179H193.909V177.83C193.633 178.25 193.237 178.574 192.721 178.802C192.217 179.018 191.605 179.126 190.885 179.126C190.165 179.126 189.535 179.006 188.995 178.766C188.455 178.514 188.035 178.172 187.735 177.74C187.447 177.296 187.303 176.798 187.303 176.246C187.303 175.382 187.621 174.692 188.257 174.176C188.905 173.648 189.919 173.384 191.299 173.384H193.783V173.24C193.783 172.568 193.579 172.052 193.171 171.692C192.775 171.332 192.181 171.152 191.389 171.152C190.849 171.152 190.315 171.236 189.787 171.404C189.271 171.572 188.833 171.806 188.473 172.106L187.591 170.468C188.095 170.084 188.701 169.79 189.409 169.586C190.117 169.382 190.867 169.28 191.659 169.28ZM191.353 177.488C191.917 177.488 192.415 177.362 192.847 177.11C193.291 176.846 193.603 176.474 193.783 175.994V174.878H191.461C190.165 174.878 189.517 175.304 189.517 176.156C189.517 176.564 189.679 176.888 190.003 177.128C190.327 177.368 190.777 177.488 191.353 177.488Z" fill="#C6C6C6"/>
<defs>
<clipPath id="clip0">
<rect width="82" height="82" fill="white" transform="translate(94 40)"/>
</clipPath>
</defs>
</svg>
