<svg width="270" height="42" viewBox="0 0 270 42" fill="none" xmlns="http://www.w3.org/2000/svg">
<path d="M28.2895 0L270 0L241.711 42H0L28.2895 0Z" fill="#EC920C"/>
<path d="M70.524 27.216C69.24 27.216 68.076 26.94 67.032 26.388C66 25.824 65.184 25.05 64.584 24.066C63.996 23.07 63.702 21.948 63.702 20.7C63.702 19.452 63.996 18.336 64.584 17.352C65.184 16.356 66 15.582 67.032 15.03C68.076 14.466 69.246 14.184 70.542 14.184C71.634 14.184 72.618 14.376 73.494 14.76C74.382 15.144 75.126 15.696 75.726 16.416L73.854 18.144C73.002 17.16 71.946 16.668 70.686 16.668C69.906 16.668 69.21 16.842 68.598 17.19C67.986 17.526 67.506 18 67.158 18.612C66.822 19.224 66.654 19.92 66.654 20.7C66.654 21.48 66.822 22.176 67.158 22.788C67.506 23.4 67.986 23.88 68.598 24.228C69.21 24.564 69.906 24.732 70.686 24.732C71.946 24.732 73.002 24.234 73.854 23.238L75.726 24.966C75.126 25.698 74.382 26.256 73.494 26.64C72.606 27.024 71.616 27.216 70.524 27.216ZM86.8605 27V21.204L83.9625 26.064H82.7745L79.9485 21.186V27H77.4105V17.316H80.3445L83.4405 22.914L86.7345 17.316H89.3625L89.3985 27H86.8605ZM96.6243 27.144C95.6043 27.144 94.6863 26.934 93.8703 26.514C93.0663 26.082 92.4363 25.488 91.9803 24.732C91.5243 23.976 91.2963 23.118 91.2963 22.158C91.2963 21.198 91.5243 20.34 91.9803 19.584C92.4363 18.828 93.0663 18.24 93.8703 17.82C94.6863 17.388 95.6043 17.172 96.6243 17.172C97.6443 17.172 98.5563 17.388 99.3603 17.82C100.164 18.24 100.794 18.828 101.25 19.584C101.706 20.34 101.934 21.198 101.934 22.158C101.934 23.118 101.706 23.976 101.25 24.732C100.794 25.488 100.164 26.082 99.3603 26.514C98.5563 26.934 97.6443 27.144 96.6243 27.144ZM96.6243 24.84C97.3443 24.84 97.9323 24.6 98.3883 24.12C98.8563 23.628 99.0903 22.974 99.0903 22.158C99.0903 21.342 98.8563 20.694 98.3883 20.214C97.9323 19.722 97.3443 19.476 96.6243 19.476C95.9043 19.476 95.3103 19.722 94.8423 20.214C94.3743 20.694 94.1403 21.342 94.1403 22.158C94.1403 22.974 94.3743 23.628 94.8423 24.12C95.3103 24.6 95.9043 24.84 96.6243 24.84ZM111.65 19.62H108.374V27H105.584V19.62H102.308V17.316H111.65V19.62ZM118.853 17.172C119.753 17.172 120.569 17.382 121.301 17.802C122.045 18.21 122.627 18.792 123.047 19.548C123.467 20.292 123.677 21.162 123.677 22.158C123.677 23.154 123.467 24.03 123.047 24.786C122.627 25.53 122.045 26.112 121.301 26.532C120.569 26.94 119.753 27.144 118.853 27.144C117.617 27.144 116.645 26.754 115.937 25.974V30.492H113.129V17.316H115.811V18.432C116.507 17.592 117.521 17.172 118.853 17.172ZM118.367 24.84C119.087 24.84 119.675 24.6 120.131 24.12C120.599 23.628 120.833 22.974 120.833 22.158C120.833 21.342 120.599 20.694 120.131 20.214C119.675 19.722 119.087 19.476 118.367 19.476C117.647 19.476 117.053 19.722 116.585 20.214C116.129 20.694 115.901 21.342 115.901 22.158C115.901 22.974 116.129 23.628 116.585 24.12C117.053 24.6 117.647 24.84 118.367 24.84ZM135.059 22.194C135.059 22.23 135.041 22.482 135.005 22.95H127.679C127.811 23.55 128.123 24.024 128.615 24.372C129.107 24.72 129.719 24.894 130.451 24.894C130.955 24.894 131.399 24.822 131.783 24.678C132.179 24.522 132.545 24.282 132.881 23.958L134.375 25.578C133.463 26.622 132.131 27.144 130.379 27.144C129.287 27.144 128.321 26.934 127.481 26.514C126.641 26.082 125.993 25.488 125.537 24.732C125.081 23.976 124.853 23.118 124.853 22.158C124.853 21.21 125.075 20.358 125.519 19.602C125.975 18.834 126.593 18.24 127.373 17.82C128.165 17.388 129.047 17.172 130.019 17.172C130.967 17.172 131.825 17.376 132.593 17.784C133.361 18.192 133.961 18.78 134.393 19.548C134.837 20.304 135.059 21.186 135.059 22.194ZM130.037 19.296C129.401 19.296 128.867 19.476 128.435 19.836C128.003 20.196 127.739 20.688 127.643 21.312H132.413C132.317 20.7 132.053 20.214 131.621 19.854C131.189 19.482 130.661 19.296 130.037 19.296ZM145.013 19.62H141.737V27H138.947V19.62H135.671V17.316H145.013V19.62ZM151.748 20.412C153.008 20.424 153.974 20.712 154.646 21.276C155.318 21.828 155.654 22.614 155.654 23.634C155.654 24.702 155.276 25.536 154.52 26.136C153.776 26.724 152.726 27.018 151.37 27.018L146.51 27V17.316H149.3V20.412H151.748ZM151.118 25.02C151.658 25.032 152.072 24.918 152.36 24.678C152.648 24.438 152.792 24.078 152.792 23.598C152.792 23.13 152.648 22.788 152.36 22.572C152.084 22.356 151.67 22.242 151.118 22.23L149.3 22.212V25.02H151.118ZM169.904 21.942C171.044 22.326 171.614 23.094 171.614 24.246C171.614 25.122 171.284 25.8 170.624 26.28C169.964 26.76 168.98 27 167.672 27H162.506V17.316H167.456C168.668 17.316 169.616 17.538 170.3 17.982C170.984 18.414 171.326 19.026 171.326 19.818C171.326 20.298 171.2 20.724 170.948 21.096C170.708 21.456 170.36 21.738 169.904 21.942ZM165.08 21.294H167.204C168.188 21.294 168.68 20.946 168.68 20.25C168.68 19.566 168.188 19.224 167.204 19.224H165.08V21.294ZM167.438 25.092C168.47 25.092 168.986 24.738 168.986 24.03C168.986 23.658 168.866 23.388 168.626 23.22C168.386 23.04 168.008 22.95 167.492 22.95H165.08V25.092H167.438ZM178.312 27.144C177.28 27.144 176.35 26.934 175.522 26.514C174.706 26.082 174.064 25.488 173.596 24.732C173.14 23.976 172.912 23.118 172.912 22.158C172.912 21.198 173.14 20.34 173.596 19.584C174.064 18.828 174.706 18.24 175.522 17.82C176.35 17.388 177.28 17.172 178.312 17.172C179.332 17.172 180.22 17.388 180.976 17.82C181.744 18.24 182.302 18.846 182.65 19.638L180.472 20.808C179.968 19.92 179.242 19.476 178.294 19.476C177.562 19.476 176.956 19.716 176.476 20.196C175.996 20.676 175.756 21.33 175.756 22.158C175.756 22.986 175.996 23.64 176.476 24.12C176.956 24.6 177.562 24.84 178.294 24.84C179.254 24.84 179.98 24.396 180.472 23.508L182.65 24.696C182.302 25.464 181.744 26.064 180.976 26.496C180.22 26.928 179.332 27.144 178.312 27.144ZM193.647 22.194C193.647 22.23 193.629 22.482 193.593 22.95H186.267C186.399 23.55 186.711 24.024 187.203 24.372C187.695 24.72 188.307 24.894 189.039 24.894C189.543 24.894 189.987 24.822 190.371 24.678C190.767 24.522 191.133 24.282 191.469 23.958L192.963 25.578C192.051 26.622 190.719 27.144 188.967 27.144C187.875 27.144 186.909 26.934 186.069 26.514C185.229 26.082 184.581 25.488 184.125 24.732C183.669 23.976 183.441 23.118 183.441 22.158C183.441 21.21 183.663 20.358 184.107 19.602C184.563 18.834 185.181 18.24 185.961 17.82C186.753 17.388 187.635 17.172 188.607 17.172C189.555 17.172 190.413 17.376 191.181 17.784C191.949 18.192 192.549 18.78 192.981 19.548C193.425 20.304 193.647 21.186 193.647 22.194ZM188.625 19.296C187.989 19.296 187.455 19.476 187.023 19.836C186.591 20.196 186.327 20.688 186.231 21.312H191.001C190.905 20.7 190.641 20.214 190.209 19.854C189.777 19.482 189.249 19.296 188.625 19.296Z" fill="white"/>
<path fill-rule="evenodd" clip-rule="evenodd" d="M202.234 16.7253C202.547 16.4249 203.053 16.4249 203.366 16.7253L207.766 20.9561C208.078 21.2565 208.078 21.7435 207.766 22.0439L203.366 26.2747C203.053 26.5751 202.547 26.5751 202.234 26.2747C201.922 25.9743 201.922 25.4872 202.234 25.1868L206.069 21.5L202.234 17.8132C201.922 17.5128 201.922 17.0257 202.234 16.7253Z" fill="white"/>
</svg>
