<svg width="270" height="246" viewBox="0 0 270 246" fill="none" xmlns="http://www.w3.org/2000/svg">
<rect width="270" height="246" fill="#F3F3F3"/>
<g clip-path="url(#clip0)">
<path d="M173.598 57.1176C173.598 56.4548 174.139 55.9145 174.801 55.9145C175.464 55.9145 176 56.4548 176 57.1176V93.1554C176 94.7671 175.342 96.2335 174.279 97.296C173.217 98.3583 171.751 99.0212 170.134 99.0212H143.045L145.296 109.522H150.49C151.716 109.522 152.824 110.021 153.627 110.825C154.431 111.629 154.93 112.736 154.93 113.957C154.93 115.179 154.431 116.291 153.627 117.095C152.824 117.898 151.716 118.397 150.49 118.397H119.51C118.288 118.397 117.176 117.898 116.373 117.095C115.569 116.291 115.07 115.179 115.07 113.957C115.07 112.736 115.569 111.629 116.373 110.825C117.176 110.021 118.288 109.522 119.51 109.522H124.704L126.96 99.0212H99.8656C98.2494 99.0212 96.7829 98.3583 95.7207 97.296C94.6582 96.2336 94 94.7671 94 93.1554V84.6023C94 83.9394 94.5404 83.4037 95.2031 83.4037C95.8658 83.4037 96.4015 83.9394 96.4015 84.6023V87.2899H173.598V57.1176ZM156.837 60.6133C156.174 60.6133 155.638 60.0731 155.638 59.4102C155.638 58.7473 156.174 58.2071 156.837 58.2071H169.744C170.407 58.2071 170.942 58.7473 170.942 59.4102C170.942 60.0731 170.407 60.6133 169.744 60.6133H156.837ZM156.837 50.9797C156.174 50.9797 155.638 50.444 155.638 49.7813C155.638 49.1139 156.174 48.5782 156.837 48.5782H169.744C170.407 48.5782 170.942 49.1139 170.942 49.7813C170.942 50.4442 170.407 50.9797 169.744 50.9797H156.837ZM156.837 55.6422C156.174 55.6422 155.638 55.1065 155.638 54.4438C155.638 53.7809 156.174 53.2407 156.837 53.2407H169.744C170.407 53.2407 170.942 53.7809 170.942 54.4438C170.942 55.1066 170.407 55.6422 169.744 55.6422H156.837ZM156.837 65.2759C156.174 65.2759 155.638 64.7356 155.638 64.0727C155.638 63.4099 156.174 62.8742 156.837 62.8742H166.634C167.297 62.8742 167.833 63.4099 167.833 64.0727C167.833 64.7356 167.297 65.2759 166.634 65.2759H156.837ZM150.99 74.9233C150.327 74.9233 149.786 74.383 149.786 73.7202C149.786 73.0573 150.327 72.5217 150.99 72.5217H163.892C164.555 72.5217 165.095 73.0574 165.095 73.7202C165.095 74.3829 164.555 74.9233 163.892 74.9233H150.99ZM150.99 79.5857C150.327 79.5857 149.786 79.05 149.786 78.3873C149.786 77.7199 150.327 77.1842 150.99 77.1842H160.782C161.445 77.1842 161.985 77.7199 161.985 78.3873C161.985 79.0502 161.445 79.5857 160.782 79.5857H150.99ZM151.049 81.9238C151.712 81.9238 152.247 82.4641 152.247 83.1269C152.247 83.7898 151.711 84.33 151.049 84.33H138.105C137.443 84.33 136.902 83.7898 136.902 83.1269V68.9805C136.902 68.3176 137.442 67.7774 138.105 67.7774H169.431C170.094 67.7774 170.634 68.3176 170.634 68.9805V83.1269C170.634 83.7898 170.094 84.33 169.431 84.33H156.487C155.825 84.33 155.289 83.7898 155.289 83.1269C155.289 82.4641 155.825 81.9238 156.487 81.9238H168.232V70.1791H139.304V81.9238H151.049ZM138.105 58.2073H152.175C152.837 58.2073 153.378 58.7475 153.378 59.4104V64.0728C153.378 64.7357 152.837 65.2761 152.175 65.2761H138.105C137.443 65.2761 136.902 64.7357 136.902 64.0728V62.9424H130.683L126.41 65.1761C126.914 65.7891 127.191 66.4428 127.196 67.1374V68.9488V72.4128C127.196 73.6023 126.706 74.6872 125.925 75.4681C125.112 76.2807 124.018 76.7348 122.869 76.7348H118.456C118.193 78.5825 117.331 80.2396 116.073 81.4972C114.548 83.0225 112.441 83.9668 110.112 83.9668C107.783 83.9668 105.677 83.0225 104.151 81.4972C102.894 80.2396 102.031 78.5825 101.768 76.7348H96.4017V79.1637C96.4017 79.8266 95.866 80.3623 95.2033 80.3623C94.5404 80.3623 94.0002 79.8266 94.0002 79.1637C94.0002 69.2621 94.0002 59.3652 94.0002 49.468C94 47.8517 94.6582 46.3853 95.7207 45.3229C96.783 44.2605 98.2494 43.6023 99.8656 43.6023H170.134C171.751 43.6023 173.217 44.2605 174.279 45.3229C175.342 46.3853 176 47.8517 176 49.4679V51.6742C176 52.3371 175.464 52.8773 174.801 52.8773C174.139 52.8773 173.598 52.3369 173.598 51.6742V49.4679C173.598 48.5191 173.208 47.652 172.581 47.0255C171.955 46.3945 171.088 46.004 170.134 46.004H99.8656C98.9166 46.004 98.0496 46.3945 97.4232 47.0255C96.7922 47.652 96.4017 48.5191 96.4017 49.4679V54.3164C96.9919 54.766 97.5821 55.2154 98.1722 55.6557C100.002 57.0176 101.614 58.0799 102.821 58.1253C105.491 58.2116 110.203 58.8879 112.768 59.4555L129.561 51.0433C129.729 50.957 129.911 50.9117 130.097 50.9117H136.902V49.7813C136.902 49.1139 137.442 48.5782 138.105 48.5782H152.175C152.837 48.5782 153.378 49.1139 153.378 49.7813V54.4438C153.378 55.1066 152.837 55.6422 152.175 55.6422H138.105C137.443 55.6422 136.902 55.1065 136.902 54.4438V53.3132H130.369L116.327 60.3502C119.01 61.0992 122.03 62.0843 124.399 63.528L129.843 60.6815C130.015 60.5907 130.206 60.5409 130.396 60.5409H136.902V59.4104C136.902 58.7475 137.442 58.2073 138.105 58.2073ZM150.971 60.6133H139.304V62.8742H150.971V60.6133ZM150.971 50.9797H139.304V53.2407H150.971V50.9797ZM121.271 64.6041V67.7503H124.79V67.1374C124.79 66.2338 121.698 64.7947 121.271 64.6041ZM142.845 109.522L140.589 99.0212H129.411L127.16 109.522H132.281C132.943 109.522 133.484 110.058 133.484 110.721C133.484 111.383 132.943 111.924 132.281 111.924H119.51C118.951 111.924 118.443 112.151 118.075 112.523C117.703 112.891 117.476 113.399 117.476 113.957C117.476 114.516 117.703 115.024 118.075 115.397C118.443 115.764 118.951 115.996 119.51 115.996H150.49C151.048 115.996 151.557 115.764 151.929 115.397C152.297 115.024 152.528 114.516 152.528 113.957C152.528 113.399 152.297 112.891 151.929 112.523C151.557 112.151 151.048 111.924 150.49 111.924H137.719C137.056 111.924 136.521 111.383 136.521 110.721C136.521 110.058 137.056 109.522 137.719 109.522H142.845ZM120.622 94.354C119.955 94.354 119.419 93.8183 119.419 93.1556C119.419 92.4927 119.955 91.9525 120.622 91.9525H122.642C123.305 91.9525 123.841 92.4927 123.841 93.1556C123.841 93.8185 123.305 94.354 122.642 94.354H120.622ZM147.362 94.354C146.699 94.354 146.159 93.8183 146.159 93.1556C146.159 92.4927 146.699 91.9525 147.362 91.9525H149.382C150.045 91.9525 150.581 92.4927 150.581 93.1556C150.581 93.8185 150.045 94.354 149.382 94.354H147.362ZM140.675 94.354C140.012 94.354 139.477 93.8183 139.477 93.1556C139.477 92.4927 140.012 91.9525 140.675 91.9525H142.695C143.358 91.9525 143.898 92.4927 143.898 93.1556C143.898 93.8185 143.358 94.354 142.695 94.354H140.675ZM133.992 94.354C133.329 94.354 132.789 93.8183 132.789 93.1556C132.789 92.4927 133.329 91.9525 133.992 91.9525H136.012C136.675 91.9525 137.211 92.4927 137.211 93.1556C137.211 93.8185 136.675 94.354 136.012 94.354H133.992ZM127.305 94.354C126.642 94.354 126.106 93.8183 126.106 93.1556C126.106 92.4927 126.642 91.9525 127.305 91.9525H129.325C129.988 91.9525 130.528 92.4927 130.528 93.1556C130.528 93.8185 129.988 94.354 129.325 94.354H127.305ZM96.4017 89.6916V93.1554C96.4017 94.1044 96.7922 94.9715 97.4232 95.5978C98.0497 96.2288 98.9168 96.6148 99.8656 96.6148H170.134C171.088 96.6148 171.955 96.2288 172.581 95.5978C173.208 94.9713 173.598 94.1042 173.598 93.1554V89.6916H96.4017ZM96.4017 74.342H101.768C102.031 72.4943 102.894 70.8372 104.151 69.5796C105.677 68.0541 107.783 67.1099 110.112 67.1099C112.441 67.1099 114.548 68.0541 116.073 69.5796C117.331 70.8372 118.193 72.4943 118.457 74.342H122.869C123.396 74.342 123.877 74.1196 124.227 73.7701C124.577 73.4207 124.79 72.9392 124.79 72.4126V70.1517H120.068C119.406 70.1517 118.87 69.6115 118.87 68.9486V63.646C118.157 63.4008 117.403 63.1649 116.632 62.9333C112.273 61.6303 107.261 60.7179 103.938 60.5544C103.725 61.3306 103.307 62.0297 102.753 62.5882C101.913 63.4236 100.76 63.941 99.489 63.941H96.4017V66.5378H98.658C99.3209 66.5378 99.8566 67.0782 99.8566 67.7409C99.8566 68.4036 99.3209 68.9393 98.658 68.9393H96.4017V74.342ZM96.4017 61.5396H99.4887C100.097 61.5396 100.651 61.2898 101.055 60.8904C101.223 60.7179 101.364 60.5226 101.473 60.3047C99.8792 59.837 98.2084 58.6748 96.4015 57.3174V61.5396H96.4017ZM144.044 72.2402C144.457 71.7225 145.206 71.6362 145.723 72.0449C146.245 72.4535 146.332 73.2072 145.923 73.7246L144.942 74.9641L146.323 75.5724C146.927 75.8401 147.203 76.5484 146.936 77.1523C146.881 77.2793 146.804 77.3929 146.713 77.4883L144.834 79.8628C144.425 80.3849 143.671 80.4711 143.154 80.0625C142.636 79.6539 142.55 78.9003 142.959 78.3828L143.939 77.1433L142.559 76.5349C141.851 76.2216 141.619 75.3092 142.105 74.6963L144.044 72.2402ZM110.112 71.3095C111.279 71.3095 112.337 71.7816 113.104 72.5489C113.867 73.3116 114.339 74.3694 114.339 75.5362C114.339 76.7029 113.867 77.7607 113.104 78.528C112.337 79.2907 111.279 79.7673 110.112 79.7673C108.945 79.7673 107.888 79.2907 107.12 78.528C106.358 77.7607 105.886 76.7029 105.886 75.5362C105.886 74.3694 106.358 73.3116 107.12 72.5489C107.888 71.7816 108.945 71.3095 110.112 71.3095ZM111.406 74.2468C111.075 73.9154 110.616 73.711 110.112 73.711C109.608 73.711 109.15 73.9152 108.823 74.2468C108.492 74.5781 108.287 75.0322 108.287 75.536C108.287 76.04 108.491 76.4986 108.823 76.8299C109.15 77.1613 109.608 77.3656 110.112 77.3656C110.616 77.3656 111.075 77.1614 111.406 76.8299C111.733 76.4986 111.937 76.0399 111.937 75.536C111.937 75.0322 111.733 74.5781 111.406 74.2468ZM114.375 71.2776C113.281 70.1834 111.778 69.5117 110.112 69.5117C108.446 69.5117 106.943 70.1882 105.849 71.2776C104.76 72.3673 104.088 73.8745 104.088 75.536C104.088 77.2021 104.759 78.7095 105.849 79.799C106.943 80.8886 108.446 81.5651 110.112 81.5651C111.778 81.5651 113.281 80.8886 114.375 79.799C115.465 78.7095 116.137 77.2021 116.137 75.536C116.137 73.8745 115.465 72.3673 114.375 71.2776Z" fill="#C6C6C6"/>
</g>
<path d="M86.7394 177.02V181.682H84.5794V179H74.9134V181.682H72.7354L72.7534 177.02H73.2934C74.0854 176.984 74.6374 176.402 74.9494 175.274C75.2734 174.134 75.4714 172.508 75.5434 170.396L75.6874 166.4H84.9214V177.02H86.7394ZM77.5954 170.612C77.5354 172.244 77.4034 173.606 77.1994 174.698C76.9954 175.778 76.6714 176.552 76.2274 177.02H82.6174V168.38H77.6854L77.5954 170.612ZM88.6907 169.388H90.9407V175.724L96.2507 169.388H98.3027V179H96.0527V172.664L90.7607 179H88.6907V169.388ZM104.911 169.28C106.327 169.28 107.407 169.622 108.151 170.306C108.907 170.978 109.285 171.998 109.285 173.366V179H107.161V177.83C106.885 178.25 106.489 178.574 105.973 178.802C105.469 179.018 104.857 179.126 104.137 179.126C103.417 179.126 102.787 179.006 102.247 178.766C101.707 178.514 101.287 178.172 100.987 177.74C100.699 177.296 100.555 176.798 100.555 176.246C100.555 175.382 100.873 174.692 101.509 174.176C102.157 173.648 103.171 173.384 104.551 173.384H107.035V173.24C107.035 172.568 106.831 172.052 106.423 171.692C106.027 171.332 105.433 171.152 104.641 171.152C104.101 171.152 103.567 171.236 103.039 171.404C102.523 171.572 102.085 171.806 101.725 172.106L100.843 170.468C101.347 170.084 101.953 169.79 102.661 169.586C103.369 169.382 104.119 169.28 104.911 169.28ZM104.605 177.488C105.169 177.488 105.667 177.362 106.099 177.11C106.543 176.846 106.855 176.474 107.035 175.994V174.878H104.713C103.417 174.878 102.769 175.304 102.769 176.156C102.769 176.564 102.931 176.888 103.255 177.128C103.579 177.368 104.029 177.488 104.605 177.488ZM119.45 171.296H114.32V179H112.07V169.388H119.45V171.296ZM121.087 169.388H123.337V173.294H128.179V169.388H130.429V179H128.179V175.202H123.337V179H121.087V169.388ZM137.729 179.126C136.757 179.126 135.881 178.916 135.101 178.496C134.321 178.076 133.709 177.494 133.265 176.75C132.833 175.994 132.617 175.142 132.617 174.194C132.617 173.246 132.833 172.4 133.265 171.656C133.709 170.912 134.321 170.33 135.101 169.91C135.881 169.49 136.757 169.28 137.729 169.28C138.713 169.28 139.595 169.49 140.375 169.91C141.155 170.33 141.761 170.912 142.193 171.656C142.637 172.4 142.859 173.246 142.859 174.194C142.859 175.142 142.637 175.994 142.193 176.75C141.761 177.494 141.155 178.076 140.375 178.496C139.595 178.916 138.713 179.126 137.729 179.126ZM137.729 177.2C138.557 177.2 139.241 176.924 139.781 176.372C140.321 175.82 140.591 175.094 140.591 174.194C140.591 173.294 140.321 172.568 139.781 172.016C139.241 171.464 138.557 171.188 137.729 171.188C136.901 171.188 136.217 171.464 135.677 172.016C135.149 172.568 134.885 173.294 134.885 174.194C134.885 175.094 135.149 175.82 135.677 176.372C136.217 176.924 136.901 177.2 137.729 177.2ZM149.455 179.126C148.459 179.126 147.565 178.916 146.773 178.496C145.981 178.076 145.363 177.494 144.919 176.75C144.475 175.994 144.253 175.142 144.253 174.194C144.253 173.246 144.475 172.4 144.919 171.656C145.363 170.912 145.975 170.33 146.755 169.91C147.547 169.49 148.447 169.28 149.455 169.28C150.403 169.28 151.231 169.472 151.939 169.856C152.659 170.24 153.199 170.792 153.559 171.512L151.831 172.52C151.555 172.076 151.207 171.746 150.787 171.53C150.379 171.302 149.929 171.188 149.437 171.188C148.597 171.188 147.901 171.464 147.349 172.016C146.797 172.556 146.521 173.282 146.521 174.194C146.521 175.106 146.791 175.838 147.331 176.39C147.883 176.93 148.585 177.2 149.437 177.2C149.929 177.2 150.379 177.092 150.787 176.876C151.207 176.648 151.555 176.312 151.831 175.868L153.559 176.876C153.187 177.596 152.641 178.154 151.921 178.55C151.213 178.934 150.391 179.126 149.455 179.126ZM163.066 171.296H159.7V179H157.45V171.296H154.066V169.388H163.066V171.296ZM164.699 169.388H166.949V175.724L172.259 169.388H174.311V179H172.061V172.664L166.769 179H164.699V169.388ZM181.333 175.148H179.587V179H177.337V169.388H179.587V173.276H181.387L184.231 169.388H186.643L183.151 174.014L186.877 179H184.231L181.333 175.148ZM191.87 169.28C193.286 169.28 194.366 169.622 195.11 170.306C195.866 170.978 196.244 171.998 196.244 173.366V179H194.12V177.83C193.844 178.25 193.448 178.574 192.932 178.802C192.428 179.018 191.816 179.126 191.096 179.126C190.376 179.126 189.746 179.006 189.206 178.766C188.666 178.514 188.246 178.172 187.946 177.74C187.658 177.296 187.514 176.798 187.514 176.246C187.514 175.382 187.832 174.692 188.468 174.176C189.116 173.648 190.13 173.384 191.51 173.384H193.994V173.24C193.994 172.568 193.79 172.052 193.382 171.692C192.986 171.332 192.392 171.152 191.6 171.152C191.06 171.152 190.526 171.236 189.998 171.404C189.482 171.572 189.044 171.806 188.684 172.106L187.802 170.468C188.306 170.084 188.912 169.79 189.62 169.586C190.328 169.382 191.078 169.28 191.87 169.28ZM191.564 177.488C192.128 177.488 192.626 177.362 193.058 177.11C193.502 176.846 193.814 176.474 193.994 175.994V174.878H191.672C190.376 174.878 189.728 175.304 189.728 176.156C189.728 176.564 189.89 176.888 190.214 177.128C190.538 177.368 190.988 177.488 191.564 177.488Z" fill="#C6C6C6"/>
<defs>
<clipPath id="clip0">
<rect width="82" height="82" fill="white" transform="translate(94 40)"/>
</clipPath>
</defs>
</svg>
