<svg width="194" height="37" viewBox="0 0 194 37" fill="none" xmlns="http://www.w3.org/2000/svg">
<path d="M25 0H194L169 37H0L25 0Z" fill="#EC920C"/>
<path fill-rule="evenodd" clip-rule="evenodd" d="M43.5714 15.95C43.5714 17.3583 42.4202 18.5 41 18.5C39.5798 18.5 38.4286 17.3583 38.4286 15.95C38.4286 14.5417 39.5798 13.4 41 13.4C42.4202 13.4 43.5714 14.5417 43.5714 15.95ZM41.8571 15.95C41.8571 16.4194 41.4734 16.8 41 16.8C40.5266 16.8 40.1429 16.4194 40.1429 15.95C40.1429 15.4806 40.5266 15.1 41 15.1C41.4734 15.1 41.8571 15.4806 41.8571 15.95Z" fill="white"/>
<path fill-rule="evenodd" clip-rule="evenodd" d="M47 15.95C47 19.0365 43.8356 23.4678 42.1029 25.6629C41.4497 26.4903 41 27 41 27C41 27 40.5503 26.4903 39.8971 25.6629C38.1644 23.4678 35 19.0365 35 15.95C35 12.6639 37.6863 10 41 10C44.3137 10 47 12.6639 47 15.95ZM45.2857 15.95C45.2857 16.6586 45.0231 17.6214 44.5002 18.7698C43.9898 19.8904 43.294 21.0542 42.5736 22.1258C42.0238 22.9436 41.472 23.6896 41 24.2991C40.528 23.6896 39.9762 22.9436 39.4264 22.1258C38.706 21.0542 38.0102 19.8904 37.4998 18.7698C36.9769 17.6214 36.7143 16.6586 36.7143 15.95C36.7143 13.6028 38.6331 11.7 41 11.7C43.3669 11.7 45.2857 13.6028 45.2857 15.95Z" fill="white"/>
<path d="M60.806 22.18V24H53.218V14.2H60.624V16.02H55.472V18.148H60.022V19.912H55.472V22.18H60.806ZM65.7879 21.144H64.6539V24H62.4699V16.468H64.6539V19.394H65.8299L67.8739 16.468H70.1979L67.5659 20.08L70.3799 24H67.8039L65.7879 21.144ZM74.2416 16.356C75.4083 16.356 76.3043 16.636 76.9296 17.196C77.555 17.7467 77.8676 18.582 77.8676 19.702V24H75.8236V23.062C75.413 23.762 74.6476 24.112 73.5276 24.112C72.949 24.112 72.445 24.014 72.0156 23.818C71.5956 23.622 71.2736 23.3513 71.0496 23.006C70.8256 22.6607 70.7136 22.2687 70.7136 21.83C70.7136 21.13 70.975 20.5793 71.4976 20.178C72.0296 19.7767 72.8463 19.576 73.9476 19.576H75.6836C75.6836 19.1 75.539 18.736 75.2496 18.484C74.9603 18.2227 74.5263 18.092 73.9476 18.092C73.5463 18.092 73.1496 18.1573 72.7576 18.288C72.375 18.4093 72.0483 18.5773 71.7776 18.792L70.9936 17.266C71.4043 16.9767 71.8943 16.7527 72.4636 16.594C73.0423 16.4353 73.635 16.356 74.2416 16.356ZM74.0736 22.642C74.447 22.642 74.7783 22.558 75.0676 22.39C75.357 22.2127 75.5623 21.956 75.6836 21.62V20.85H74.1856C73.2896 20.85 72.8416 21.144 72.8416 21.732C72.8416 22.012 72.949 22.236 73.1636 22.404C73.3876 22.5627 73.691 22.642 74.0736 22.642ZM86.0928 18.26H83.5448V24H81.3748V18.26H78.8268V16.468H86.0928V18.26ZM94.2646 20.262C94.2646 20.29 94.2506 20.486 94.2226 20.85H88.5246C88.6272 21.3167 88.8699 21.6853 89.2526 21.956C89.6352 22.2267 90.1112 22.362 90.6806 22.362C91.0726 22.362 91.4179 22.306 91.7166 22.194C92.0246 22.0727 92.3092 21.886 92.5706 21.634L93.7326 22.894C93.0232 23.706 91.9872 24.112 90.6246 24.112C89.7752 24.112 89.0239 23.9487 88.3706 23.622C87.7172 23.286 87.2132 22.824 86.8586 22.236C86.5039 21.648 86.3266 20.9807 86.3266 20.234C86.3266 19.4967 86.4992 18.834 86.8446 18.246C87.1992 17.6487 87.6799 17.1867 88.2866 16.86C88.9026 16.524 89.5886 16.356 90.3446 16.356C91.0819 16.356 91.7492 16.5147 92.3466 16.832C92.9439 17.1493 93.4106 17.6067 93.7466 18.204C94.0919 18.792 94.2646 19.478 94.2646 20.262ZM90.3586 18.008C89.8639 18.008 89.4486 18.148 89.1126 18.428C88.7766 18.708 88.5712 19.0907 88.4966 19.576H92.2066C92.1319 19.1 91.9266 18.722 91.5906 18.442C91.2546 18.1527 90.8439 18.008 90.3586 18.008ZM100.377 16.356C101.077 16.356 101.711 16.5193 102.281 16.846C102.859 17.1633 103.312 17.616 103.639 18.204C103.965 18.7827 104.129 19.4593 104.129 20.234C104.129 21.0087 103.965 21.69 103.639 22.278C103.312 22.8567 102.859 23.3093 102.281 23.636C101.711 23.9533 101.077 24.112 100.377 24.112C99.4153 24.112 98.6593 23.8087 98.1087 23.202V26.716H95.9247V16.468H98.0107V17.336C98.552 16.6827 99.3407 16.356 100.377 16.356ZM99.9987 22.32C100.559 22.32 101.016 22.1333 101.371 21.76C101.735 21.3773 101.917 20.8687 101.917 20.234C101.917 19.5993 101.735 19.0953 101.371 18.722C101.016 18.3393 100.559 18.148 99.9987 18.148C99.4387 18.148 98.9767 18.3393 98.6127 18.722C98.258 19.0953 98.0807 19.5993 98.0807 20.234C98.0807 20.8687 98.258 21.3773 98.6127 21.76C98.9767 22.1333 99.4387 22.32 99.9987 22.32ZM105.659 16.468H107.829V20.948L111.497 16.468H113.499V24H111.329V19.52L107.675 24H105.659V16.468ZM115.599 16.468H117.769V19.408H121.045V16.468H123.229V24H121.045V21.186H117.769V24H115.599V16.468ZM129.674 16.986C130.392 16.986 131.022 17.1353 131.564 17.434C132.105 17.7233 132.52 18.134 132.81 18.666C133.108 19.198 133.258 19.814 133.258 20.514C133.258 21.2327 133.08 21.872 132.726 22.432C132.38 22.9827 131.895 23.412 131.27 23.72C130.644 24.0187 129.935 24.168 129.142 24.168C127.826 24.168 126.79 23.748 126.034 22.908C125.287 22.0587 124.914 20.8173 124.914 19.184C124.914 17.672 125.24 16.468 125.894 15.572C126.556 14.6667 127.569 14.074 128.932 13.794L132.516 13.08L132.81 14.956L129.646 15.586C128.787 15.754 128.148 16.034 127.728 16.426C127.317 16.818 127.074 17.3733 127 18.092C127.326 17.7373 127.718 17.4667 128.176 17.28C128.633 17.084 129.132 16.986 129.674 16.986ZM129.156 22.474C129.716 22.474 130.164 22.292 130.5 21.928C130.845 21.564 131.018 21.102 131.018 20.542C131.018 19.9727 130.845 19.52 130.5 19.184C130.164 18.848 129.716 18.68 129.156 18.68C128.586 18.68 128.129 18.848 127.784 19.184C127.438 19.52 127.266 19.9727 127.266 20.542C127.266 21.1113 127.443 21.578 127.798 21.942C128.152 22.2967 128.605 22.474 129.156 22.474ZM142.08 16.468L138.678 24.462C138.333 25.33 137.904 25.9413 137.39 26.296C136.886 26.6507 136.275 26.828 135.556 26.828C135.164 26.828 134.777 26.7673 134.394 26.646C134.012 26.5247 133.699 26.3567 133.456 26.142L134.254 24.588C134.422 24.7373 134.614 24.854 134.828 24.938C135.052 25.022 135.272 25.064 135.486 25.064C135.785 25.064 136.028 24.9893 136.214 24.84C136.401 24.7 136.569 24.462 136.718 24.126L136.746 24.056L133.484 16.468H135.738L137.852 21.578L139.98 16.468H142.08ZM147.572 16.356C148.272 16.356 148.907 16.5193 149.476 16.846C150.055 17.1633 150.507 17.616 150.834 18.204C151.161 18.7827 151.324 19.4593 151.324 20.234C151.324 21.0087 151.161 21.69 150.834 22.278C150.507 22.8567 150.055 23.3093 149.476 23.636C148.907 23.9533 148.272 24.112 147.572 24.112C146.611 24.112 145.855 23.8087 145.304 23.202V26.716H143.12V16.468H145.206V17.336C145.747 16.6827 146.536 16.356 147.572 16.356ZM147.194 22.32C147.754 22.32 148.211 22.1333 148.566 21.76C148.93 21.3773 149.112 20.8687 149.112 20.234C149.112 19.5993 148.93 19.0953 148.566 18.722C148.211 18.3393 147.754 18.148 147.194 18.148C146.634 18.148 146.172 18.3393 145.808 18.722C145.453 19.0953 145.276 19.5993 145.276 20.234C145.276 20.8687 145.453 21.3773 145.808 21.76C146.172 22.1333 146.634 22.32 147.194 22.32ZM158.889 18.26H155.025V24H152.855V16.468H158.889V18.26Z" fill="white"/>
</svg>
