<svg width="300" height="29" viewBox="0 0 300 29" fill="none" xmlns="http://www.w3.org/2000/svg">
<g clip-path="url(#clip0)">
<path d="M300 5.69455C298.848 7.59273 297.696 9.59637 296.545 11.4945L293.194 17.2945C292.042 19.1927 290.995 21.1964 289.843 23.2C288.691 25.2036 287.644 27.1018 286.492 29H279.581C280.838 26.7855 282.094 24.5709 283.351 22.4618C284.607 20.3527 285.864 18.0327 287.225 15.8182L279.267 22.3564C276.649 24.5709 273.927 26.7855 271.309 28.8945H264.293C265.445 26.9964 266.492 24.9927 267.644 23.0945C268.796 21.1964 269.843 19.1927 270.995 17.2945C272.147 15.3964 273.194 13.3927 274.346 11.4945C275.497 9.59637 276.545 7.59273 277.696 5.69455H284.712C283.456 7.90909 282.199 10.1236 280.942 12.2327C279.686 14.3418 278.429 16.6618 277.173 18.7709L285.131 12.2327L293.089 5.69455H300Z" fill="#223257"/>
<path d="M296.963 0C296.335 1.16 295.497 2.32 294.45 3.16364C293.403 4.00727 292.147 4.42909 290.89 4.32364H287.225C285.34 4.32364 284.607 3.58545 285.131 2.00364C285.34 1.26545 285.654 0.632727 286.073 0H289.738C289.319 0.632727 289.005 1.26545 288.691 1.89818H292.356C292.775 1.26545 293.089 0.632727 293.508 0H296.963V0Z" fill="#223257"/>
<path d="M270.995 6.11636C269.738 5.69455 268.482 5.58909 267.225 5.58909H259.267C257.173 5.48364 255.183 5.90545 253.298 6.74909C251.309 7.90909 249.738 9.59636 248.691 11.6C247.644 13.3927 246.597 15.2909 245.55 17.0836C244.503 18.8764 243.455 20.7745 242.408 22.5673C241.885 23.4109 241.466 24.36 241.047 25.4145C240.628 26.8909 240.942 27.84 242.199 28.3673C243.455 28.7891 244.712 28.8945 245.969 28.8945H253.927C256.021 29 258.115 28.5782 260.105 27.6291C262.094 26.3636 263.665 24.6764 264.712 22.5673C265.759 20.7745 266.806 18.8764 267.853 17.0836C268.901 15.2909 269.948 13.3927 270.995 11.6C271.518 10.7564 271.832 9.91273 272.147 9.06909C272.461 7.69818 272.147 6.74909 270.995 6.11636ZM260.628 17.1891L257.487 22.6727H249.529L252.67 17.1891C253.717 15.3964 254.764 13.4982 255.812 11.7055H263.77C262.618 13.4982 261.675 15.3964 260.628 17.1891Z" fill="#223257"/>
<path d="M246.283 6.11637C245.236 5.69455 244.084 5.5891 243.037 5.5891H227.435C226.283 7.48728 225.236 9.49091 224.084 11.3891C222.932 13.2873 221.885 15.2909 220.733 17.1891C219.581 19.0873 218.534 21.0909 217.382 22.9891L214.031 28.7891H221.257C222.094 27.3127 223.037 25.7309 223.874 24.2546C224.712 22.7782 224.712 22.8836 225.55 21.4073H234.869C236.23 21.4073 237.592 21.0909 238.848 20.5636C240.733 19.6145 242.199 18.1382 243.246 16.24C243.77 15.2909 245.34 12.6546 245.864 11.7055C246.387 10.7564 246.911 9.80728 247.225 8.75273C247.539 7.59273 247.225 6.64364 246.283 6.11637ZM235.916 16.5564H228.377C229.005 15.5018 230.576 12.76 231.099 11.7055H238.639C238.01 12.76 236.44 15.5018 235.916 16.5564Z" fill="#223257"/>
<path d="M224.712 5.69455C223.56 7.69819 222.408 9.70182 221.257 11.7055H214.136L211.623 16.0291L209.11 20.3527C208.272 21.8291 207.435 23.2 206.597 24.6764C205.759 26.1527 204.921 27.5236 204.084 29H196.754C197.592 27.5236 198.429 26.1527 199.267 24.6764C200.105 23.2 200.942 21.8291 201.78 20.3527C202.618 18.8764 203.455 17.5055 204.293 16.0291L206.806 11.7055H199.686C200.838 9.70182 201.99 7.69819 203.141 5.69455H224.712Z" fill="#223257"/>
<path d="M200.942 5.69454C199.791 7.69818 198.639 9.70182 197.487 11.7055H183.77C182.723 13.4982 181.675 15.3964 180.628 17.1891C179.581 18.9818 178.534 20.88 177.487 22.6727H191.204L187.644 29H173.822C171.623 29 170.157 28.7891 169.424 28.2618C168.691 27.7345 168.482 26.8909 168.796 25.6255C169.11 24.5709 169.634 23.6218 170.157 22.6727C171.204 20.88 172.251 18.9818 173.298 17.1891C174.346 15.3964 175.393 13.4982 176.44 11.7055C177.487 9.59636 179.058 7.90909 181.047 6.74909C182.932 5.90545 185.026 5.58909 187.12 5.69454H200.942Z" fill="#223257"/>
<path d="M177.068 5.69455C175.916 7.69819 174.869 9.59637 173.717 11.4945C172.565 13.3927 171.518 15.3964 170.367 17.2945L167.016 23.2C165.969 25.0982 164.817 27.1018 163.665 29H156.335L159.058 24.36C160 22.7782 160.838 21.1964 161.78 19.72H153.927C152.984 21.3018 152.147 22.7782 151.204 24.36C150.262 25.9418 149.424 27.5236 148.482 29H141.361C142.513 27.1018 143.56 25.0982 144.712 23.2L148.063 17.4L151.414 11.6C152.565 9.70182 153.613 7.69819 154.764 5.8H162.094C161.257 7.27637 160.314 8.85819 159.476 10.3345C158.639 11.8109 157.696 13.3927 156.859 14.8691H164.712C165.55 13.3927 166.387 11.8109 167.33 10.3345C168.272 8.85819 169.11 7.27637 169.948 5.8L177.068 5.69455Z" fill="#223257"/>
<path d="M148.482 6.11636C147.225 5.69455 145.969 5.58909 144.712 5.58909H136.754C134.66 5.48364 132.565 5.90545 130.681 6.74909C128.691 7.90909 127.12 9.59636 126.178 11.6C125.131 13.4982 123.979 15.2909 122.932 17.0836L119.791 22.5673C119.267 23.4109 118.848 24.36 118.534 25.4145C118.115 26.8909 118.429 27.84 119.686 28.3673C120.942 28.7891 122.199 28.8945 123.455 28.8945H131.414C133.508 29 135.602 28.5782 137.592 27.7345C139.581 26.4691 141.152 24.7818 142.199 22.6727C143.246 20.88 144.293 18.9818 145.34 17.1891C146.387 15.3964 147.435 13.4982 148.482 11.7055C148.901 10.8618 149.319 10.0182 149.634 9.17455C150.052 7.69818 149.738 6.64364 148.482 6.11636ZM138.115 17.1891C137.068 18.9818 136.021 20.88 134.974 22.6727H127.016L130.157 17.1891C131.204 15.3964 132.251 13.4982 133.298 11.7055H141.257C140.209 13.4982 139.162 15.3964 138.115 17.1891Z" fill="#223257"/>
<path d="M126.911 5.69455C125.759 7.69819 124.607 9.70182 123.455 11.7055H116.44C115.602 13.1818 114.764 14.5527 113.927 16.0291C113.089 17.5055 112.251 18.8764 111.414 20.3527C110.576 21.8291 109.738 23.2 108.901 24.6764C108.063 26.1527 107.225 27.5236 106.387 29H99.1623C100 27.5236 100.838 26.1527 101.571 24.6764C102.304 23.2 103.246 21.8291 104.084 20.3527C104.921 18.8764 105.759 17.5055 106.597 16.0291C107.435 14.5527 108.272 13.1818 109.11 11.7055H101.99C103.141 9.70182 104.293 7.69819 105.55 5.69455H126.911Z" fill="#223257"/>
<path d="M103.037 5.69455C101.885 7.69819 100.733 9.70182 99.5811 11.7055H87.1204C86.4921 12.76 85.9686 13.7091 85.3403 14.7636H96.6492C95.7068 16.4509 94.7644 18.0327 93.822 19.72H82.5131C81.8848 20.7746 81.3612 21.7236 80.733 22.7782H93.1937C91.9372 24.8873 90.7853 26.9964 89.5288 29.1055H69.9476C71.0995 27.2073 72.1466 25.2036 73.2984 23.3055C74.4502 21.4073 75.6021 19.4036 76.6492 17.5055C77.6963 15.6073 78.9529 13.6036 80 11.7055C81.0471 9.80728 82.3036 7.80364 83.3508 5.90546L103.037 5.69455Z" fill="#223257"/>
<path d="M76.021 11.7055C77.1728 9.70182 78.3246 7.69819 79.4765 5.69455H58.2199C57.0681 7.59273 55.9162 9.59637 54.8691 11.4945L51.5183 17.2945C50.3665 19.1927 49.3194 21.1964 48.1676 23.0945C47.0157 24.9927 45.9686 26.9964 44.9215 28.8945H61.6754C65.3403 28.8945 68.2723 27.1018 70.3665 23.5164C71.0995 22.2509 71.8325 20.9855 72.5655 19.72C72.9843 18.9818 73.2985 18.2436 73.6126 17.4C73.9267 16.4509 73.822 15.8182 73.4032 15.3964C72.9843 14.9746 71.4136 14.7636 69.3194 14.7636H60.1047L61.8848 11.7055H76.021ZM64.9215 19.72C64.3979 20.7746 63.7696 21.7236 63.1414 22.7782H55.4974C56.1257 21.7236 56.6492 20.7746 57.2775 19.72H64.9215Z" fill="#223257"/>
<path fill-rule="evenodd" clip-rule="evenodd" d="M0 5.48364L6.28272 16.4509H30.5759L36.8586 5.48364H0Z" fill="#EC920C"/>
<path fill-rule="evenodd" clip-rule="evenodd" d="M37.6963 29L51.2042 5.48364H38.6387L31.4136 18.0327H7.22513L13.5079 29H37.6963Z" fill="#223257"/>
</g>
<defs>
<clipPath id="clip0">
<rect width="300" height="29" fill="white"/>
</clipPath>
</defs>
</svg>
