<svg width="270" height="42" viewBox="0 0 270 42" fill="none" xmlns="http://www.w3.org/2000/svg">
<path d="M28.2895 0L270 0L241.711 42H0L28.2895 0Z" fill="#EC920C"/>
<path d="M100.73 20.43C101.462 20.682 102.032 21.078 102.44 21.618C102.86 22.146 103.07 22.764 103.07 23.472C103.07 24.24 102.818 24.906 102.314 25.47C101.81 26.034 101.126 26.466 100.262 26.766C99.41 27.066 98.474 27.216 97.454 27.216C96.59 27.216 95.726 27.108 94.862 26.892C94.01 26.676 93.2 26.346 92.432 25.902L93.332 23.814C93.884 24.15 94.49 24.408 95.15 24.588C95.822 24.756 96.476 24.84 97.112 24.84C97.976 24.84 98.69 24.684 99.254 24.372C99.83 24.06 100.118 23.622 100.118 23.058C100.118 22.59 99.92 22.236 99.524 21.996C99.14 21.756 98.612 21.636 97.94 21.636H94.862V19.44H97.724C98.312 19.44 98.768 19.32 99.092 19.08C99.428 18.84 99.596 18.51 99.596 18.09C99.596 17.598 99.356 17.214 98.876 16.938C98.408 16.662 97.802 16.524 97.058 16.524C96.506 16.524 95.936 16.602 95.348 16.758C94.76 16.902 94.202 17.124 93.674 17.424L92.792 15.156C94.124 14.472 95.564 14.13 97.112 14.13C98.096 14.13 99.002 14.274 99.83 14.562C100.658 14.85 101.318 15.27 101.81 15.822C102.302 16.374 102.548 17.016 102.548 17.748C102.548 18.348 102.386 18.882 102.062 19.35C101.738 19.818 101.294 20.178 100.73 20.43ZM108.925 17.172C110.425 17.172 111.577 17.532 112.381 18.252C113.185 18.96 113.587 20.034 113.587 21.474V27H110.959V25.794C110.431 26.694 109.447 27.144 108.007 27.144C107.263 27.144 106.615 27.018 106.062 26.766C105.523 26.514 105.109 26.166 104.821 25.722C104.533 25.278 104.389 24.774 104.389 24.21C104.389 23.31 104.725 22.602 105.397 22.086C106.081 21.57 107.131 21.312 108.547 21.312H110.779C110.779 20.7 110.593 20.232 110.221 19.908C109.849 19.572 109.291 19.404 108.547 19.404C108.031 19.404 107.521 19.488 107.017 19.656C106.525 19.812 106.105 20.028 105.757 20.304L104.749 18.342C105.277 17.97 105.907 17.682 106.639 17.478C107.383 17.274 108.145 17.172 108.925 17.172ZM108.709 25.254C109.189 25.254 109.615 25.146 109.987 24.93C110.359 24.702 110.623 24.372 110.779 23.94V22.95H108.853C107.701 22.95 107.125 23.328 107.125 24.084C107.125 24.444 107.263 24.732 107.539 24.948C107.827 25.152 108.217 25.254 108.709 25.254ZM120.292 23.328H118.834V27H116.026V17.316H118.834V21.078H120.346L122.974 17.316H125.962L122.578 21.96L126.196 27H122.884L120.292 23.328ZM131.161 17.172C132.661 17.172 133.813 17.532 134.617 18.252C135.421 18.96 135.823 20.034 135.823 21.474V27H133.195V25.794C132.667 26.694 131.683 27.144 130.243 27.144C129.499 27.144 128.851 27.018 128.299 26.766C127.759 26.514 127.345 26.166 127.057 25.722C126.769 25.278 126.625 24.774 126.625 24.21C126.625 23.31 126.961 22.602 127.633 22.086C128.317 21.57 129.367 21.312 130.783 21.312H133.015C133.015 20.7 132.829 20.232 132.457 19.908C132.085 19.572 131.527 19.404 130.783 19.404C130.267 19.404 129.757 19.488 129.253 19.656C128.761 19.812 128.341 20.028 127.993 20.304L126.985 18.342C127.513 17.97 128.143 17.682 128.875 17.478C129.619 17.274 130.381 17.172 131.161 17.172ZM130.945 25.254C131.425 25.254 131.851 25.146 132.223 24.93C132.595 24.702 132.859 24.372 133.015 23.94V22.95H131.089C129.937 22.95 129.361 23.328 129.361 24.084C129.361 24.444 129.499 24.732 129.775 24.948C130.063 25.152 130.453 25.254 130.945 25.254ZM144.456 21.96C145.032 22.14 145.476 22.416 145.788 22.788C146.112 23.16 146.274 23.604 146.274 24.12C146.274 24.732 146.064 25.272 145.644 25.74C145.224 26.196 144.648 26.55 143.916 26.802C143.184 27.054 142.356 27.18 141.432 27.18C140.676 27.18 139.932 27.102 139.2 26.946C138.468 26.79 137.79 26.556 137.166 26.244L137.922 24.282C138.942 24.774 140.07 25.02 141.306 25.02C141.966 25.02 142.482 24.924 142.854 24.732C143.238 24.528 143.43 24.246 143.43 23.886C143.43 23.574 143.298 23.34 143.034 23.184C142.77 23.016 142.386 22.932 141.882 22.932H139.902V21.186H141.63C142.122 21.186 142.5 21.108 142.764 20.952C143.028 20.796 143.16 20.568 143.16 20.268C143.16 19.956 142.992 19.716 142.656 19.548C142.332 19.38 141.864 19.296 141.252 19.296C140.316 19.296 139.296 19.518 138.192 19.962L137.508 18.018C138.852 17.43 140.16 17.136 141.432 17.136C142.308 17.136 143.088 17.244 143.772 17.46C144.468 17.676 145.014 17.994 145.41 18.414C145.806 18.822 146.004 19.302 146.004 19.854C146.004 20.31 145.866 20.724 145.59 21.096C145.314 21.456 144.936 21.744 144.456 21.96ZM152.079 17.172C153.579 17.172 154.731 17.532 155.535 18.252C156.339 18.96 156.741 20.034 156.741 21.474V27H154.113V25.794C153.585 26.694 152.601 27.144 151.161 27.144C150.417 27.144 149.769 27.018 149.217 26.766C148.677 26.514 148.263 26.166 147.975 25.722C147.687 25.278 147.543 24.774 147.543 24.21C147.543 23.31 147.879 22.602 148.551 22.086C149.235 21.57 150.285 21.312 151.701 21.312H153.933C153.933 20.7 153.747 20.232 153.375 19.908C153.003 19.572 152.445 19.404 151.701 19.404C151.185 19.404 150.675 19.488 150.171 19.656C149.679 19.812 149.259 20.028 148.911 20.304L147.903 18.342C148.431 17.97 149.061 17.682 149.793 17.478C150.537 17.274 151.299 17.172 152.079 17.172ZM151.863 25.254C152.343 25.254 152.769 25.146 153.141 24.93C153.513 24.702 153.777 24.372 153.933 23.94V22.95H152.007C150.855 22.95 150.279 23.328 150.279 24.084C150.279 24.444 150.417 24.732 150.693 24.948C150.981 25.152 151.371 25.254 151.863 25.254ZM167.316 19.62H164.04V27H161.25V19.62H157.974V17.316H167.316V19.62ZM174.051 20.412C175.311 20.424 176.277 20.712 176.949 21.276C177.621 21.828 177.957 22.614 177.957 23.634C177.957 24.702 177.579 25.536 176.823 26.136C176.079 26.724 175.029 27.018 173.673 27.018L168.813 27V17.316H171.603V20.412H174.051ZM173.421 25.02C173.961 25.032 174.375 24.918 174.663 24.678C174.951 24.438 175.095 24.078 175.095 23.598C175.095 23.13 174.951 22.788 174.663 22.572C174.387 22.356 173.973 22.242 173.421 22.23L171.603 22.212V25.02H173.421Z" fill="white"/>
</svg>
