<svg width="270" height="245" viewBox="0 0 270 245" fill="none" xmlns="http://www.w3.org/2000/svg">
<rect width="270" height="245" fill="#F3F3F3"/>
<path d="M105.983 166.4C107.075 166.4 108.023 166.58 108.827 166.94C109.643 167.3 110.267 167.816 110.699 168.488C111.131 169.16 111.347 169.958 111.347 170.882C111.347 171.794 111.131 172.592 110.699 173.276C110.267 173.948 109.643 174.464 108.827 174.824C108.023 175.184 107.075 175.364 105.983 175.364H103.139V179H100.799V166.4H105.983ZM105.875 173.384C106.895 173.384 107.669 173.168 108.197 172.736C108.725 172.304 108.989 171.686 108.989 170.882C108.989 170.078 108.725 169.46 108.197 169.028C107.669 168.596 106.895 168.38 105.875 168.38H103.139V173.384H105.875ZM122.274 174.248C122.274 174.404 122.262 174.626 122.238 174.914H114.696C114.828 175.622 115.17 176.186 115.722 176.606C116.286 177.014 116.982 177.218 117.81 177.218C118.866 177.218 119.736 176.87 120.42 176.174L121.626 177.56C121.194 178.076 120.648 178.466 119.988 178.73C119.328 178.994 118.584 179.126 117.756 179.126C116.7 179.126 115.77 178.916 114.966 178.496C114.162 178.076 113.538 177.494 113.094 176.75C112.662 175.994 112.446 175.142 112.446 174.194C112.446 173.258 112.656 172.418 113.076 171.674C113.508 170.918 114.102 170.33 114.858 169.91C115.614 169.49 116.466 169.28 117.414 169.28C118.35 169.28 119.184 169.49 119.916 169.91C120.66 170.318 121.236 170.9 121.644 171.656C122.064 172.4 122.274 173.264 122.274 174.248ZM117.414 171.08C116.694 171.08 116.082 171.296 115.578 171.728C115.086 172.148 114.786 172.712 114.678 173.42H120.132C120.036 172.724 119.742 172.16 119.25 171.728C118.758 171.296 118.146 171.08 117.414 171.08ZM134.185 179V172.628L130.945 177.992H129.973L126.787 172.61V179H124.735V169.388H127.093L130.513 175.4L134.095 169.388H136.201L136.219 179H134.185ZM143.521 179.126C142.549 179.126 141.673 178.916 140.893 178.496C140.113 178.076 139.501 177.494 139.057 176.75C138.625 175.994 138.409 175.142 138.409 174.194C138.409 173.246 138.625 172.4 139.057 171.656C139.501 170.912 140.113 170.33 140.893 169.91C141.673 169.49 142.549 169.28 143.521 169.28C144.505 169.28 145.387 169.49 146.167 169.91C146.947 170.33 147.553 170.912 147.985 171.656C148.429 172.4 148.651 173.246 148.651 174.194C148.651 175.142 148.429 175.994 147.985 176.75C147.553 177.494 146.947 178.076 146.167 178.496C145.387 178.916 144.505 179.126 143.521 179.126ZM143.521 177.2C144.349 177.2 145.033 176.924 145.573 176.372C146.113 175.82 146.383 175.094 146.383 174.194C146.383 173.294 146.113 172.568 145.573 172.016C145.033 171.464 144.349 171.188 143.521 171.188C142.693 171.188 142.009 171.464 141.469 172.016C140.941 172.568 140.677 173.294 140.677 174.194C140.677 175.094 140.941 175.82 141.469 176.372C142.009 176.924 142.693 177.2 143.521 177.2ZM150.873 169.388H153.123V173.294H157.965V169.388H160.215V179H157.965V175.202H153.123V179H150.873V169.388ZM170.845 171.296H167.479V179H165.229V171.296H161.845V169.388H170.845V171.296Z" fill="#C6C6C6"/>
<path d="M173.181 79.2383H169.009C168.353 79.2383 167.719 79.3871 167.146 79.6568L165.345 64.3188C165.519 64.215 165.683 64.0912 165.831 63.9437C166.295 63.4792 166.551 62.862 166.551 62.2055C166.551 59.7638 164.564 57.7772 162.122 57.7772H160.634C159.97 57.7772 159.433 58.315 159.433 58.9784C159.433 59.6417 159.97 60.1795 160.634 60.1795H162.122C163.24 60.1795 164.148 61.0884 164.148 62.2055C164.148 62.2124 164.148 62.2286 164.132 62.2449C164.115 62.2617 164.099 62.2617 164.092 62.2617H122.063C122.041 62.0127 122.027 61.7622 122.027 61.5096V60.1797H155.509C156.172 60.1797 156.71 59.6419 156.71 58.9785C156.71 58.3151 156.172 57.7773 155.509 57.7773H122.027V46.8683C122.027 43.0811 118.946 40 115.159 40H100.868C97.0811 40 94 43.0811 94 46.8683V61.159C94 64.9463 97.0811 68.0273 100.868 68.0273H108.544L108.144 71.4331C108.066 72.0919 108.538 72.6887 109.197 72.766C109.244 72.7717 109.291 72.7744 109.338 72.7744C109.939 72.7744 110.458 72.3245 110.53 71.7132L110.962 68.0273H114.64C116.043 68.0273 117.437 68.3822 118.67 69.0538L121.528 70.6108C121.82 70.7703 122.135 70.8485 122.447 70.8485C122.91 70.8485 123.366 70.6752 123.731 70.3392C124.342 69.7772 124.519 68.9239 124.184 68.1651L122.747 64.9169C122.71 64.8333 122.677 64.7486 122.643 64.6642H162.966L165.096 82.7971C164.844 82.7753 164.59 82.7619 164.333 82.7619H159.032C157.853 79.3701 154.592 76.9963 150.935 76.9963C147.279 76.9963 144.018 79.3701 142.839 82.7619H109.991C109.734 82.7619 109.48 82.7753 109.228 82.7971L109.922 76.8857C110 76.2269 109.528 75.6301 108.869 75.5528C108.21 75.4753 107.614 75.9468 107.536 76.6056L107.178 79.6569C106.605 79.3871 105.971 79.2383 105.315 79.2383H101.143C99.5887 79.2383 98.3242 80.5029 98.3242 82.057V84.9078C98.3242 86.4621 99.5888 87.7266 101.143 87.7266H102.082C101.522 88.8821 101.207 90.1778 101.207 91.5457V103.219C101.207 104.328 101.623 105.341 102.307 106.112C101.632 106.741 101.207 107.634 101.207 108.627V110.549C101.207 112.447 102.752 113.992 104.65 113.992H105.371V118.877C105.371 120.599 106.772 122 108.494 122H114.58C116.302 122 117.703 120.599 117.703 118.877V113.992H148.402C149.066 113.992 149.604 113.454 149.604 112.791C149.604 112.128 149.066 111.59 148.402 111.59H104.65C104.076 111.59 103.609 111.123 103.609 110.549V108.627C103.609 108.053 104.076 107.586 104.65 107.586H169.674C170.248 107.586 170.715 108.053 170.715 108.627V110.549C170.715 111.123 170.248 111.59 169.674 111.59H153.639C152.976 111.59 152.438 112.128 152.438 112.791C152.438 113.454 152.976 113.992 153.639 113.992H155.66V118.877C155.66 120.599 157.061 122 158.783 122H164.869C166.591 122 167.992 120.599 167.992 118.877V113.992H169.674C171.572 113.992 173.117 112.447 173.117 110.549V108.627C173.117 107.634 172.692 106.741 172.018 106.112C172.701 105.341 173.117 104.327 173.117 103.219V91.5457C173.117 90.1778 172.802 88.8819 172.242 87.7266H173.181C174.736 87.7266 176 86.462 176 84.9078V82.057C176 80.5029 174.735 79.2383 173.181 79.2383ZM119.819 66.9442C118.235 66.0811 116.444 65.625 114.64 65.625H100.868C98.4057 65.625 96.4023 63.6216 96.4023 61.159V46.8683C96.4023 44.4057 98.4057 42.4023 100.868 42.4023H115.159C117.622 42.4023 119.625 44.4057 119.625 46.8683V61.5096C119.625 63.0271 119.936 64.5004 120.55 65.8883L121.397 67.8041L119.819 66.9442ZM115.301 118.877C115.301 119.274 114.977 119.598 114.58 119.598H108.494C108.097 119.598 107.773 119.274 107.773 118.877V113.992H115.301V118.877ZM165.59 118.877C165.59 119.274 165.266 119.598 164.869 119.598H158.783C158.386 119.598 158.062 119.274 158.062 118.877V113.992H165.59V118.877ZM161.34 85.1645L159.976 86.9762C159.697 87.3462 159.255 87.5669 158.791 87.5669H115.533C115.07 87.5669 114.627 87.346 114.348 86.9761L112.984 85.1645H161.34ZM150.936 79.3984C153.275 79.3984 155.39 80.7479 156.427 82.7617H145.444C146.481 80.7479 148.596 79.3984 150.936 79.3984ZM100.727 84.9078V82.057C100.727 81.8274 100.913 81.6406 101.143 81.6406H105.315C105.922 81.6406 106.487 81.919 106.858 82.3829L106.74 83.3881C105.63 83.832 104.63 84.4943 103.797 85.3242H101.143C100.913 85.3242 100.727 85.1373 100.727 84.9078ZM105.574 105.184C104.491 105.184 103.609 104.302 103.609 103.219V91.5457C103.609 88.0315 106.465 85.1721 109.977 85.1644L112.429 88.4212C113.159 89.3904 114.319 89.9692 115.533 89.9692H158.792C160.005 89.9692 161.165 89.3904 161.895 88.4212L164.347 85.1642C167.86 85.1721 170.715 88.0315 170.715 91.5457V103.219C170.715 104.302 169.833 105.184 168.75 105.184H105.574ZM173.598 84.9078C173.598 85.1375 173.411 85.3242 173.181 85.3242H170.528C169.694 84.4941 168.694 83.8319 167.584 83.3879L167.466 82.3829C167.838 81.9188 168.403 81.6406 169.009 81.6406H173.181C173.411 81.6406 173.598 81.8275 173.598 82.057V84.9078H173.598Z" fill="#C6C6C6"/>
<path d="M113.328 91.0898H110.779C108.15 91.0898 106.012 93.2286 106.012 95.8575V97.995C106.012 100.281 107.871 102.141 110.157 102.141H116.153C118.421 102.141 120.266 100.296 120.266 98.0278C120.266 94.2023 117.153 91.0898 113.328 91.0898ZM116.153 99.7383H110.157C109.196 99.7383 108.414 98.9562 108.414 97.995V95.8575C108.414 94.5532 109.475 93.4922 110.779 93.4922H113.328C115.829 93.4922 117.863 95.527 117.863 98.028C117.863 98.971 117.096 99.7383 116.153 99.7383Z" fill="#C6C6C6"/>
<path d="M163.545 91.0898H160.997C157.171 91.0898 154.059 94.2023 154.059 98.028C154.059 100.296 155.904 102.141 158.171 102.141H164.167C166.453 102.141 168.312 100.281 168.312 97.995V95.8575C168.312 93.2286 166.174 91.0898 163.545 91.0898ZM165.91 97.995C165.91 98.9562 165.128 99.7383 164.167 99.7383H158.171C157.228 99.7383 156.461 98.971 156.461 98.0278C156.461 95.5268 158.496 93.4922 160.997 93.4922H163.545C164.849 93.4922 165.91 94.5532 165.91 95.8575V97.995Z" fill="#C6C6C6"/>
<path d="M143.648 91.25H130.676C127.188 91.25 124.35 94.088 124.35 97.5762C124.35 101.064 127.188 103.902 130.676 103.902H143.648C147.137 103.902 149.975 101.064 149.975 97.5762C149.975 94.088 147.137 91.25 143.648 91.25ZM143.648 101.5H130.676C128.512 101.5 126.752 99.7397 126.752 97.5762C126.752 95.4126 128.512 93.6523 130.676 93.6523H143.648C145.812 93.6523 147.572 95.4126 147.572 97.5762C147.572 99.7397 145.812 101.5 143.648 101.5Z" fill="#C6C6C6"/>
<path d="M107.693 50.3705C105.618 50.3705 103.93 52.0589 103.93 54.1342C103.93 56.2095 105.618 57.8978 107.693 57.8978C109.769 57.8978 111.457 56.2095 111.457 54.1342C111.457 52.0589 109.769 50.3705 107.693 50.3705ZM107.693 55.4955C106.943 55.4955 106.332 54.8848 106.332 54.1342C106.332 53.3835 106.943 52.7728 107.693 52.7728C108.444 52.7728 109.055 53.3835 109.055 54.1342C109.055 54.8848 108.444 55.4955 107.693 55.4955Z" fill="#C6C6C6"/>
<path d="M115.798 50.777C116.117 49.4752 115.761 48.0457 114.771 47.0562C113.782 46.0666 112.352 45.7103 111.051 46.0291C110.356 44.8832 109.093 44.1244 107.693 44.1244C106.294 44.1244 105.031 44.8832 104.336 46.0291C103.035 45.7103 101.605 46.0668 100.615 47.0562C99.626 48.0457 99.2696 49.4752 99.5883 50.777C98.4424 51.4719 97.6836 52.7349 97.6836 54.1342C97.6836 55.5334 98.4424 56.7964 99.5883 57.4914C99.2695 58.7929 99.626 60.2227 100.615 61.2121C101.605 62.2015 103.034 62.5579 104.336 62.239C105.031 63.3848 106.294 64.1438 107.693 64.1438C109.092 64.1438 110.356 63.3848 111.051 62.239C112.352 62.5579 113.782 62.2014 114.771 61.2119C115.761 60.2225 116.117 58.7929 115.798 57.4912C116.944 56.7964 117.703 55.5334 117.703 54.1342C117.703 52.735 116.944 51.4719 115.798 50.777ZM114.007 55.6353C113.59 55.6978 113.237 55.9742 113.076 56.3635C112.914 56.7529 112.969 57.1983 113.219 57.5372C113.663 58.1368 113.6 58.9864 113.073 59.5133C112.546 60.0402 111.696 60.1033 111.096 59.6602C110.757 59.4099 110.312 59.3551 109.923 59.5164C109.533 59.6776 109.257 60.0311 109.195 60.4478C109.084 61.1854 108.438 61.7414 107.693 61.7414C106.948 61.7414 106.303 61.1854 106.192 60.4478C106.129 60.0311 105.853 59.6775 105.464 59.5162C105.316 59.4549 105.16 59.4248 105.004 59.4248C104.751 59.4248 104.5 59.5048 104.29 59.66C103.69 60.1032 102.841 60.0402 102.314 59.5132C101.787 58.9861 101.724 58.1366 102.167 57.537C102.417 57.1981 102.472 56.7527 102.311 56.3634C102.15 55.974 101.796 55.6976 101.379 55.6351C100.642 55.5248 100.086 54.8794 100.086 54.1342C100.086 53.3889 100.642 52.7435 101.38 52.6329C101.796 52.5704 102.15 52.294 102.311 51.9046C102.472 51.5153 102.418 51.0699 102.167 50.731C101.724 50.1314 101.787 49.2817 102.314 48.7548C102.841 48.2279 103.691 48.1648 104.29 48.608C104.629 48.8584 105.074 48.9131 105.464 48.7518C105.853 48.5905 106.13 48.2369 106.192 47.8202C106.303 47.0828 106.948 46.5266 107.693 46.5266C108.439 46.5266 109.084 47.0826 109.195 47.8202C109.257 48.2369 109.534 48.5905 109.923 48.7516C110.312 48.9129 110.758 48.8583 111.097 48.6078C111.696 48.1645 112.546 48.2276 113.073 48.7547C113.6 49.2816 113.663 50.1311 113.22 50.7307C112.969 51.0696 112.914 51.515 113.076 51.9043C113.237 52.2936 113.59 52.5701 114.007 52.6325C114.745 52.7432 115.301 53.3886 115.301 54.1338C115.301 54.8794 114.745 55.5248 114.007 55.6353Z" fill="#C6C6C6"/>
</svg>
