<svg width="86" height="37" xmlns="http://www.w3.org/2000/svg">

 <g>
  <title>Layer 1</title>
  <rect stroke="#f3f3f3" id="svg_6" height="36.81034" width="31.29311" y="0.12069" x="54.67241" stroke-opacity="0" fill="#f3f3f3"/>
  <g>
   <path fill="#EC920C" d="m25,0l61,0l-25,37l-61,0l25,-37z"/>
  </g>
  <g>
   <path fill="white" d="m44.64862,21.7912c-0.96738,0.6077 -2.10949,0.9588 -3.33283,0.9588c-3.48811,0 -6.31579,-2.85418 -6.31579,-6.375c0,-3.52082 2.82768,-6.375 6.31579,-6.375c3.48811,0 6.31581,2.85418 6.31581,6.375c0,1.67085 -0.6368,3.19156 -1.6789,4.3283l4.8007,4.8457c0.3288,0.3319 0.3288,0.8701 0,1.202c-0.3289,0.332 -0.8621,0.332 -1.191,0l-4.91378,-4.9598zm1.29878,-5.4162c0,2.58193 -2.07366,4.675 -4.63161,4.675c-2.55795,0 -4.63158,-2.09307 -4.63158,-4.675c0,-2.58193 2.07363,-4.675 4.63158,-4.675c2.55795,0 4.63161,2.09307 4.63161,4.675z" clip-rule="evenodd" fill-rule="evenodd"/>
  </g>
 </g>
</svg>