<svg width="270" height="42" viewBox="0 0 270 42" fill="none" xmlns="http://www.w3.org/2000/svg">
<path d="M28.2895 0L270 0L241.711 42H0L28.2895 0Z" fill="#EC920C"/>
<path d="M90.578 27.216C89.27 27.216 88.088 26.934 87.032 26.37C85.988 25.806 85.166 25.032 84.566 24.048C83.978 23.052 83.684 21.936 83.684 20.7C83.684 19.464 83.978 18.354 84.566 17.37C85.166 16.374 85.988 15.594 87.032 15.03C88.088 14.466 89.27 14.184 90.578 14.184C91.886 14.184 93.062 14.466 94.106 15.03C95.15 15.594 95.972 16.374 96.572 17.37C97.172 18.354 97.472 19.464 97.472 20.7C97.472 21.936 97.172 23.052 96.572 24.048C95.972 25.032 95.15 25.806 94.106 26.37C93.062 26.934 91.886 27.216 90.578 27.216ZM90.578 24.732C91.322 24.732 91.994 24.564 92.594 24.228C93.194 23.88 93.662 23.4 93.998 22.788C94.346 22.176 94.52 21.48 94.52 20.7C94.52 19.92 94.346 19.224 93.998 18.612C93.662 18 93.194 17.526 92.594 17.19C91.994 16.842 91.322 16.668 90.578 16.668C89.834 16.668 89.162 16.842 88.562 17.19C87.962 17.526 87.488 18 87.14 18.612C86.804 19.224 86.636 19.92 86.636 20.7C86.636 21.48 86.804 22.176 87.14 22.788C87.488 23.4 87.962 23.88 88.562 24.228C89.162 24.564 89.834 24.732 90.578 24.732ZM107.515 19.62H104.239V27H101.449V19.62H98.1733V17.316H107.515V19.62ZM118.642 17.316V27H115.834V19.62H111.802V27H109.012V17.316H118.642ZM127.04 17.172C127.94 17.172 128.756 17.382 129.488 17.802C130.232 18.21 130.814 18.792 131.234 19.548C131.654 20.292 131.864 21.162 131.864 22.158C131.864 23.154 131.654 24.03 131.234 24.786C130.814 25.53 130.232 26.112 129.488 26.532C128.756 26.94 127.94 27.144 127.04 27.144C125.804 27.144 124.832 26.754 124.124 25.974V30.492H121.316V17.316H123.998V18.432C124.694 17.592 125.708 17.172 127.04 17.172ZM126.554 24.84C127.274 24.84 127.862 24.6 128.318 24.12C128.786 23.628 129.02 22.974 129.02 22.158C129.02 21.342 128.786 20.694 128.318 20.214C127.862 19.722 127.274 19.476 126.554 19.476C125.834 19.476 125.24 19.722 124.772 20.214C124.316 20.694 124.088 21.342 124.088 22.158C124.088 22.974 124.316 23.628 124.772 24.12C125.24 24.6 125.834 24.84 126.554 24.84ZM137.436 17.172C138.936 17.172 140.088 17.532 140.892 18.252C141.696 18.96 142.098 20.034 142.098 21.474V27H139.47V25.794C138.942 26.694 137.958 27.144 136.518 27.144C135.774 27.144 135.126 27.018 134.574 26.766C134.034 26.514 133.62 26.166 133.332 25.722C133.044 25.278 132.9 24.774 132.9 24.21C132.9 23.31 133.236 22.602 133.908 22.086C134.592 21.57 135.642 21.312 137.058 21.312H139.29C139.29 20.7 139.104 20.232 138.732 19.908C138.36 19.572 137.802 19.404 137.058 19.404C136.542 19.404 136.032 19.488 135.528 19.656C135.036 19.812 134.616 20.028 134.268 20.304L133.26 18.342C133.788 17.97 134.418 17.682 135.15 17.478C135.894 17.274 136.656 17.172 137.436 17.172ZM137.22 25.254C137.7 25.254 138.126 25.146 138.498 24.93C138.87 24.702 139.134 24.372 139.29 23.94V22.95H137.364C136.212 22.95 135.636 23.328 135.636 24.084C135.636 24.444 135.774 24.732 136.05 24.948C136.338 25.152 136.728 25.254 137.22 25.254ZM151.936 21.942C153.076 22.326 153.646 23.094 153.646 24.246C153.646 25.122 153.316 25.8 152.656 26.28C151.996 26.76 151.012 27 149.704 27H144.538V17.316H149.488C150.7 17.316 151.648 17.538 152.332 17.982C153.016 18.414 153.357 19.026 153.357 19.818C153.357 20.298 153.232 20.724 152.98 21.096C152.74 21.456 152.392 21.738 151.936 21.942ZM147.112 21.294H149.236C150.22 21.294 150.712 20.946 150.712 20.25C150.712 19.566 150.22 19.224 149.236 19.224H147.112V21.294ZM149.47 25.092C150.502 25.092 151.018 24.738 151.018 24.03C151.018 23.658 150.898 23.388 150.658 23.22C150.418 23.04 150.04 22.95 149.524 22.95H147.112V25.092H149.47ZM155.735 17.316H158.525V23.076L163.241 17.316H165.815V27H163.025V21.24L158.327 27H155.735V17.316ZM176.65 19.62H173.374V27H170.584V19.62H167.308V17.316H176.65V19.62ZM183.385 20.412C184.645 20.424 185.611 20.712 186.283 21.276C186.955 21.828 187.291 22.614 187.291 23.634C187.291 24.702 186.913 25.536 186.157 26.136C185.413 26.724 184.363 27.018 183.007 27.018L178.147 27V17.316H180.937V20.412H183.385ZM182.755 25.02C183.295 25.032 183.709 24.918 183.997 24.678C184.285 24.438 184.429 24.078 184.429 23.598C184.429 23.13 184.285 22.788 183.997 22.572C183.721 22.356 183.307 22.242 182.755 22.23L180.937 22.212V25.02H182.755Z" fill="white"/>
</svg>
