<svg width="270" height="246" viewBox="0 0 270 246" fill="none" xmlns="http://www.w3.org/2000/svg">
<rect width="270" height="246" fill="#F3F3F3"/>
<g clip-path="url(#clip0)">
<path d="M152.767 81H122.7C120.436 81 118.6 82.8356 118.6 85.1V112.433C118.6 114.698 120.436 116.533 122.7 116.533H152.767C155.031 116.533 156.867 114.698 156.867 112.433V85.1C156.867 82.8356 155.031 81 152.767 81ZM154.133 112.433C154.133 113.188 153.522 113.8 152.767 113.8H122.7C121.945 113.8 121.333 113.188 121.333 112.433V85.1C121.333 84.3452 121.945 83.7333 122.7 83.7333H152.767C153.522 83.7333 154.133 84.3452 154.133 85.1V112.433Z" fill="#C6C6C6"/>
<path d="M114.5 98.7668C114.5 94.9929 111.441 91.9335 107.667 91.9335C103.893 91.9335 100.833 94.9929 100.833 98.7668C100.833 102.541 103.893 105.6 107.667 105.6C111.439 105.596 114.495 102.539 114.5 98.7668ZM107.667 102.867C105.402 102.867 103.567 101.031 103.567 98.7668C103.567 96.5024 105.402 94.6668 107.667 94.6668C109.931 94.6668 111.767 96.5024 111.767 98.7668C111.767 101.031 109.931 102.867 107.667 102.867Z" fill="#C6C6C6"/>
<path d="M100.833 89.2001H104.933C105.688 89.2001 106.3 88.5882 106.3 87.8335C106.3 87.0787 105.688 86.4668 104.933 86.4668H100.833C100.078 86.4668 99.4666 87.0787 99.4666 87.8335C99.4666 88.5882 100.078 89.2001 100.833 89.2001Z" fill="#C6C6C6"/>
<path d="M114.5 86.4668H110.4C109.645 86.4668 109.033 87.0787 109.033 87.8335C109.033 88.5882 109.645 89.2001 110.4 89.2001H114.5C115.255 89.2001 115.867 88.5882 115.867 87.8335C115.867 87.0787 115.255 86.4668 114.5 86.4668Z" fill="#C6C6C6"/>
<path d="M100.833 83.7333H104.933C105.688 83.7333 106.3 83.1214 106.3 82.3667C106.3 81.6119 105.688 81 104.933 81H100.833C100.078 81 99.4666 81.6119 99.4666 82.3667C99.4666 83.1214 100.078 83.7333 100.833 83.7333Z" fill="#C6C6C6"/>
<path d="M114.5 81H110.4C109.645 81 109.033 81.6119 109.033 82.3667C109.033 83.1214 109.645 83.7333 110.4 83.7333H114.5C115.255 83.7333 115.867 83.1214 115.867 82.3667C115.867 81.6119 115.255 81 114.5 81Z" fill="#C6C6C6"/>
<path d="M104.933 113.8H100.833C100.078 113.8 99.4666 114.412 99.4666 115.167C99.4666 115.922 100.078 116.533 100.833 116.533H104.933C105.688 116.533 106.3 115.922 106.3 115.167C106.3 114.412 105.688 113.8 104.933 113.8Z" fill="#C6C6C6"/>
<path d="M114.5 113.8H110.4C109.645 113.8 109.033 114.412 109.033 115.167C109.033 115.922 109.645 116.533 110.4 116.533H114.5C115.255 116.533 115.867 115.922 115.867 115.167C115.867 114.412 115.255 113.8 114.5 113.8Z" fill="#C6C6C6"/>
<path d="M104.933 108.333H100.833C100.078 108.333 99.4666 108.945 99.4666 109.7C99.4666 110.455 100.078 111.067 100.833 111.067H104.933C105.688 111.067 106.3 110.455 106.3 109.7C106.3 108.945 105.688 108.333 104.933 108.333Z" fill="#C6C6C6"/>
<path d="M114.5 108.333H110.4C109.645 108.333 109.033 108.945 109.033 109.7C109.033 110.455 109.645 111.067 110.4 111.067H114.5C115.255 111.067 115.867 110.455 115.867 109.7C115.867 108.945 115.255 108.333 114.5 108.333Z" fill="#C6C6C6"/>
<path d="M142.927 91.1135C142.659 90.7685 142.253 90.5583 141.817 90.5381C141.383 90.539 140.979 90.7564 140.739 91.1176C140.73 91.1258 140.021 91.9376 137.732 91.9376C136.662 92.0709 135.583 91.78 134.725 91.1271C134.478 90.7888 134.09 90.5822 133.671 90.5668C133.225 90.5414 132.797 90.748 132.54 91.1135L124.34 102.047C124.029 102.461 123.979 103.015 124.21 103.478C124.34 103.732 127.441 109.7 137.733 109.7C148.026 109.7 151.127 103.732 151.263 103.478C151.492 103.013 151.44 102.459 151.127 102.047L142.927 91.1135ZM137.733 106.967C131.102 106.967 128.136 104.214 127.106 102.915L133.898 93.8577C135.092 94.4361 136.408 94.7139 137.733 94.6668C139.058 94.7139 140.375 94.4361 141.568 93.8577L148.36 102.915C147.323 104.221 144.356 106.967 137.733 106.967Z" fill="#C6C6C6"/>
<path d="M135 46.8334C131.981 46.8334 129.533 49.2809 129.533 52.3C129.533 55.3192 131.981 57.7667 135 57.7667C138.019 57.7667 140.467 55.3192 140.467 52.3C140.467 50.8502 139.891 49.4597 138.865 48.4345C137.84 47.4093 136.45 46.8334 135 46.8334ZM135 55.0334C133.49 55.0334 132.267 53.8096 132.267 52.3C132.267 50.7905 133.49 49.5667 135 49.5667C136.509 49.5667 137.733 50.7905 137.733 52.3C137.733 53.8096 136.509 55.0334 135 55.0334Z" fill="#C6C6C6"/>
<path d="M114.5 46.8334C113.745 46.8334 113.133 47.4453 113.133 48.2V56.4C113.133 57.1548 113.745 57.7667 114.5 57.7667C115.255 57.7667 115.867 57.1548 115.867 56.4V48.2C115.867 47.4453 115.255 46.8334 114.5 46.8334Z" fill="#C6C6C6"/>
<path d="M169.167 50.9332H159.6C159.6 48.6689 157.764 46.8332 155.5 46.8332H153.733C152.843 43.9486 150.427 41.7951 147.46 41.2408C141.987 40.3415 136.446 39.9263 130.9 39.9999C117.954 39.9999 111.619 41.7123 109.497 42.449C108.725 42.7219 108.117 43.3284 107.843 44.0999H102.2C101.186 44.1051 100.257 44.6718 99.7892 45.5718C96.462 46.0751 94.0023 48.9348 94.0023 52.2999C94.0023 55.665 96.462 58.5247 99.7892 59.028C100.257 59.928 101.186 60.4947 102.2 60.4999H107.843C108.117 61.2714 108.725 61.8779 109.497 62.1508C111.619 62.8875 117.954 64.5999 130.9 64.5999C136.446 64.6738 141.987 64.2581 147.46 63.3576C150.427 62.8044 152.843 60.6511 153.733 57.7666H155.5C157.764 57.7666 159.6 55.9309 159.6 53.6666H169.167C171.431 53.6666 173.267 55.5022 173.267 57.7666V104.233C173.259 106.081 172.016 107.694 170.233 108.175C169.61 106.622 168.107 105.603 166.433 105.6H162.333V82.3666C162.329 78.5945 159.272 75.5378 155.5 75.5332H100.833C97.0613 75.5378 94.0045 78.5945 94 82.3666V115.167C94.0045 118.939 97.0613 121.995 100.833 122H155.5C159.272 121.995 162.329 118.939 162.333 115.167V113.8H166.433C168.209 113.794 169.779 112.643 170.317 110.95C173.593 110.391 175.991 107.556 176 104.233V57.7666C175.995 53.9945 172.939 50.9378 169.167 50.9332ZM96.7333 52.2999C96.7355 50.5629 97.8298 49.0149 99.4667 48.4336V56.1662C97.8298 55.5849 96.7355 54.0369 96.7333 52.2999ZM102.2 46.8332H107.667V57.7666H102.2V46.8332ZM151.4 55.3066C151.413 57.932 149.548 60.1917 146.968 60.6762C141.657 61.5447 136.281 61.943 130.9 61.8666C118.369 61.8666 112.384 60.2594 110.4 59.5692V59.1332V45.4666C110.4 45.4543 110.4 45.4433 110.4 45.431V45.032C112.384 44.3404 118.369 42.7332 130.9 42.7332C136.281 42.6593 141.657 43.0595 146.968 43.9291C149.548 44.4147 151.413 46.6745 151.4 49.3001V55.3066ZM156.867 53.6666C156.867 54.4214 156.255 55.0332 155.5 55.0332H154.133V49.5666H155.5C156.255 49.5666 156.867 50.1784 156.867 50.9332V53.6666ZM159.6 115.167C159.6 117.431 157.764 119.267 155.5 119.267H100.833C98.569 119.267 96.7333 117.431 96.7333 115.167V82.3666C96.7333 80.1022 98.569 78.2666 100.833 78.2666H155.5C157.764 78.2666 159.6 80.1022 159.6 82.3666V115.167ZM166.433 111.067H162.333V108.333H166.433C167.188 108.333 167.8 108.945 167.8 109.7C167.8 110.455 167.188 111.067 166.433 111.067Z" fill="#C6C6C6"/>
</g>
<path d="M71.1611 166.4L65.6891 176.57C65.2091 177.47 64.6331 178.148 63.9611 178.604C63.3011 179.048 62.5811 179.27 61.8011 179.27C61.1771 179.27 60.5591 179.138 59.9471 178.874L60.5231 177.038C61.0151 177.194 61.4231 177.272 61.7471 177.272C62.5031 177.272 63.1271 176.882 63.6191 176.102L63.8171 175.796L58.7951 166.4H61.2971L65.0231 173.798L68.8571 166.4H71.1611ZM80.7914 169.388V179H78.5414V171.296H74.9414L74.8514 173.204C74.7914 174.476 74.6714 175.544 74.4914 176.408C74.3234 177.26 74.0294 177.938 73.6094 178.442C73.2014 178.934 72.6374 179.18 71.9174 179.18C71.5814 179.18 71.1674 179.114 70.6754 178.982L70.7834 177.092C70.9514 177.128 71.0954 177.146 71.2154 177.146C71.6714 177.146 72.0134 176.966 72.2414 176.606C72.4694 176.234 72.6134 175.796 72.6734 175.292C72.7454 174.776 72.8054 174.044 72.8534 173.096L73.0154 169.388H80.7914ZM88.6456 172.556C89.8696 172.556 90.8056 172.832 91.4536 173.384C92.1136 173.936 92.4436 174.716 92.4436 175.724C92.4436 176.78 92.0836 177.596 91.3636 178.172C90.6436 178.748 89.6296 179.03 88.3216 179.018L83.8216 179V169.388H86.0716V172.538L88.6456 172.556ZM88.1236 177.362C88.7836 177.374 89.2876 177.236 89.6356 176.948C89.9836 176.66 90.1576 176.24 90.1576 175.688C90.1576 175.148 89.9896 174.752 89.6536 174.5C89.3176 174.248 88.8076 174.116 88.1236 174.104L86.0716 174.086V177.344L88.1236 177.362ZM101.139 171.296H97.7727V179H95.5227V171.296H92.1387V169.388H101.139V171.296ZM108.099 169.28C109.035 169.28 109.869 169.484 110.601 169.892C111.345 170.3 111.927 170.876 112.347 171.62C112.767 172.364 112.977 173.222 112.977 174.194C112.977 175.166 112.767 176.03 112.347 176.786C111.927 177.53 111.345 178.106 110.601 178.514C109.869 178.922 109.035 179.126 108.099 179.126C106.803 179.126 105.777 178.694 105.021 177.83V182.492H102.771V169.388H104.913V170.648C105.285 170.192 105.741 169.85 106.281 169.622C106.833 169.394 107.439 169.28 108.099 169.28ZM107.847 177.2C108.675 177.2 109.353 176.924 109.881 176.372C110.421 175.82 110.691 175.094 110.691 174.194C110.691 173.294 110.421 172.568 109.881 172.016C109.353 171.464 108.675 171.188 107.847 171.188C107.307 171.188 106.821 171.314 106.389 171.566C105.957 171.806 105.615 172.154 105.363 172.61C105.111 173.066 104.985 173.594 104.985 174.194C104.985 174.794 105.111 175.322 105.363 175.778C105.615 176.234 105.957 176.588 106.389 176.84C106.821 177.08 107.307 177.2 107.847 177.2ZM118.675 169.28C120.091 169.28 121.171 169.622 121.915 170.306C122.671 170.978 123.049 171.998 123.049 173.366V179H120.925V177.83C120.649 178.25 120.253 178.574 119.737 178.802C119.233 179.018 118.621 179.126 117.901 179.126C117.181 179.126 116.551 179.006 116.011 178.766C115.471 178.514 115.051 178.172 114.751 177.74C114.463 177.296 114.319 176.798 114.319 176.246C114.319 175.382 114.637 174.692 115.273 174.176C115.921 173.648 116.935 173.384 118.315 173.384H120.799V173.24C120.799 172.568 120.595 172.052 120.187 171.692C119.791 171.332 119.197 171.152 118.405 171.152C117.865 171.152 117.331 171.236 116.803 171.404C116.287 171.572 115.849 171.806 115.489 172.106L114.607 170.468C115.111 170.084 115.717 169.79 116.425 169.586C117.133 169.382 117.883 169.28 118.675 169.28ZM118.369 177.488C118.933 177.488 119.431 177.362 119.863 177.11C120.307 176.846 120.619 176.474 120.799 175.994V174.878H118.477C117.181 174.878 116.533 175.304 116.533 176.156C116.533 176.564 116.695 176.888 117.019 177.128C117.343 177.368 117.793 177.488 118.369 177.488ZM131.452 173.996C132.052 174.164 132.514 174.44 132.838 174.824C133.174 175.196 133.342 175.646 133.342 176.174C133.342 176.762 133.144 177.284 132.748 177.74C132.352 178.184 131.806 178.532 131.11 178.784C130.414 179.036 129.622 179.162 128.734 179.162C127.99 179.162 127.264 179.078 126.556 178.91C125.848 178.73 125.206 178.478 124.63 178.154L125.278 176.48C125.746 176.744 126.274 176.948 126.862 177.092C127.45 177.236 128.038 177.308 128.626 177.308C129.382 177.308 129.97 177.194 130.39 176.966C130.822 176.726 131.038 176.402 131.038 175.994C131.038 175.622 130.87 175.334 130.534 175.13C130.21 174.926 129.748 174.824 129.148 174.824H127.276V173.312H128.968C129.532 173.312 129.97 173.216 130.282 173.024C130.606 172.832 130.768 172.562 130.768 172.214C130.768 171.866 130.576 171.59 130.192 171.386C129.808 171.182 129.28 171.08 128.608 171.08C127.648 171.08 126.634 171.314 125.566 171.782L124.99 170.126C126.25 169.538 127.522 169.244 128.806 169.244C129.622 169.244 130.354 169.358 131.002 169.586C131.65 169.802 132.154 170.114 132.514 170.522C132.886 170.918 133.072 171.374 133.072 171.89C133.072 172.358 132.928 172.778 132.64 173.15C132.352 173.51 131.956 173.792 131.452 173.996ZM142.643 173.996C143.831 174.356 144.425 175.124 144.425 176.3C144.425 177.164 144.101 177.83 143.453 178.298C142.805 178.766 141.845 179 140.573 179H135.677V169.388H140.375C141.551 169.388 142.469 169.604 143.129 170.036C143.789 170.468 144.119 171.08 144.119 171.872C144.119 172.364 143.987 172.79 143.723 173.15C143.471 173.51 143.111 173.792 142.643 173.996ZM137.819 173.402H140.177C141.341 173.402 141.923 173 141.923 172.196C141.923 171.416 141.341 171.026 140.177 171.026H137.819V173.402ZM140.393 177.362C141.629 177.362 142.247 176.96 142.247 176.156C142.247 175.736 142.103 175.424 141.815 175.22C141.527 175.004 141.077 174.896 140.465 174.896H137.819V177.362H140.393ZM155.894 169.388L151.394 179.774C150.974 180.818 150.464 181.55 149.864 181.97C149.264 182.402 148.538 182.618 147.686 182.618C147.206 182.618 146.732 182.54 146.264 182.384C145.796 182.228 145.412 182.012 145.112 181.736L146.012 180.08C146.228 180.284 146.48 180.446 146.768 180.566C147.068 180.686 147.368 180.746 147.668 180.746C148.064 180.746 148.388 180.644 148.64 180.44C148.904 180.236 149.144 179.894 149.36 179.414L149.522 179.036L145.328 169.388H147.668L150.692 176.498L153.734 169.388H155.894ZM161.452 175.148H159.706V179H157.456V169.388H159.706V173.276H161.506L164.35 169.388H166.762L163.27 174.014L166.996 179H164.35L161.452 175.148ZM172.551 179.126C171.579 179.126 170.703 178.916 169.923 178.496C169.143 178.076 168.531 177.494 168.087 176.75C167.655 175.994 167.439 175.142 167.439 174.194C167.439 173.246 167.655 172.4 168.087 171.656C168.531 170.912 169.143 170.33 169.923 169.91C170.703 169.49 171.579 169.28 172.551 169.28C173.535 169.28 174.417 169.49 175.197 169.91C175.977 170.33 176.583 170.912 177.015 171.656C177.459 172.4 177.681 173.246 177.681 174.194C177.681 175.142 177.459 175.994 177.015 176.75C176.583 177.494 175.977 178.076 175.197 178.496C174.417 178.916 173.535 179.126 172.551 179.126ZM172.551 177.2C173.379 177.2 174.063 176.924 174.603 176.372C175.143 175.82 175.413 175.094 175.413 174.194C175.413 173.294 175.143 172.568 174.603 172.016C174.063 171.464 173.379 171.188 172.551 171.188C171.723 171.188 171.039 171.464 170.499 172.016C169.971 172.568 169.707 173.294 169.707 174.194C169.707 175.094 169.971 175.82 170.499 176.372C171.039 176.924 171.723 177.2 172.551 177.2ZM186.87 173.996C188.058 174.356 188.652 175.124 188.652 176.3C188.652 177.164 188.328 177.83 187.68 178.298C187.032 178.766 186.072 179 184.8 179H179.904V169.388H184.602C185.778 169.388 186.696 169.604 187.356 170.036C188.016 170.468 188.346 171.08 188.346 171.872C188.346 172.364 188.214 172.79 187.95 173.15C187.698 173.51 187.338 173.792 186.87 173.996ZM182.046 173.402H184.404C185.568 173.402 186.15 173 186.15 172.196C186.15 171.416 185.568 171.026 184.404 171.026H182.046V173.402ZM184.62 177.362C185.856 177.362 186.474 176.96 186.474 176.156C186.474 175.736 186.33 175.424 186.042 175.22C185.754 175.004 185.304 174.896 184.692 174.896H182.046V177.362H184.62ZM194.63 169.28C196.046 169.28 197.126 169.622 197.87 170.306C198.626 170.978 199.004 171.998 199.004 173.366V179H196.88V177.83C196.604 178.25 196.208 178.574 195.692 178.802C195.188 179.018 194.576 179.126 193.856 179.126C193.136 179.126 192.506 179.006 191.966 178.766C191.426 178.514 191.006 178.172 190.706 177.74C190.418 177.296 190.274 176.798 190.274 176.246C190.274 175.382 190.592 174.692 191.228 174.176C191.876 173.648 192.89 173.384 194.27 173.384H196.754V173.24C196.754 172.568 196.55 172.052 196.142 171.692C195.746 171.332 195.152 171.152 194.36 171.152C193.82 171.152 193.286 171.236 192.758 171.404C192.242 171.572 191.804 171.806 191.444 172.106L190.562 170.468C191.066 170.084 191.672 169.79 192.38 169.586C193.088 169.382 193.838 169.28 194.63 169.28ZM194.324 177.488C194.888 177.488 195.386 177.362 195.818 177.11C196.262 176.846 196.574 176.474 196.754 175.994V174.878H194.432C193.136 174.878 192.488 175.304 192.488 176.156C192.488 176.564 192.65 176.888 192.974 177.128C193.298 177.368 193.748 177.488 194.324 177.488ZM209.906 169.388V179H207.89V176.102H205.352L203.39 179H200.978L203.246 175.796C202.55 175.556 202.016 175.19 201.644 174.698C201.284 174.194 201.104 173.576 201.104 172.844C201.104 171.74 201.494 170.888 202.274 170.288C203.054 169.688 204.128 169.388 205.496 169.388H209.906ZM205.568 171.278C204.116 171.278 203.39 171.824 203.39 172.916C203.39 173.996 204.092 174.536 205.496 174.536H207.89V171.278H205.568ZM70.0117 191.388V201H67.7617V197.274C66.8377 197.718 65.8717 197.94 64.8637 197.94C63.6277 197.94 62.6797 197.658 62.0197 197.094C61.3597 196.518 61.0297 195.642 61.0297 194.466V191.388H63.2797V194.322C63.2797 194.934 63.4597 195.39 63.8197 195.69C64.1797 195.99 64.6897 196.14 65.3497 196.14C66.1897 196.14 66.9937 195.96 67.7617 195.6V191.388H70.0117ZM73.0374 191.388H75.2874V197.724L80.5974 191.388H82.6494V201H80.3994V194.664L75.1074 201H73.0374V191.388ZM90.0501 201.126C89.0541 201.126 88.1601 200.916 87.3681 200.496C86.5761 200.076 85.9581 199.494 85.5141 198.75C85.0701 197.994 84.8481 197.142 84.8481 196.194C84.8481 195.246 85.0701 194.4 85.5141 193.656C85.9581 192.912 86.5701 192.33 87.3501 191.91C88.1421 191.49 89.0421 191.28 90.0501 191.28C90.9981 191.28 91.8261 191.472 92.5341 191.856C93.2541 192.24 93.7941 192.792 94.1541 193.512L92.4261 194.52C92.1501 194.076 91.8021 193.746 91.3821 193.53C90.9741 193.302 90.5241 193.188 90.0321 193.188C89.1921 193.188 88.4961 193.464 87.9441 194.016C87.3921 194.556 87.1161 195.282 87.1161 196.194C87.1161 197.106 87.3861 197.838 87.9261 198.39C88.4781 198.93 89.1801 199.2 90.0321 199.2C90.5241 199.2 90.9741 199.092 91.3821 198.876C91.8021 198.648 92.1501 198.312 92.4261 197.868L94.1541 198.876C93.7821 199.596 93.2361 200.154 92.5161 200.55C91.8081 200.934 90.9861 201.126 90.0501 201.126ZM103.661 193.296H100.295V201H98.0452V193.296H94.6612V191.388H103.661V193.296ZM109.289 197.148H107.543V201H105.293V191.388H107.543V195.276H109.343L112.187 191.388H114.599L111.107 196.014L114.833 201H112.187L109.289 197.148ZM119.826 191.28C121.242 191.28 122.322 191.622 123.066 192.306C123.822 192.978 124.2 193.998 124.2 195.366V201H122.076V199.83C121.8 200.25 121.404 200.574 120.888 200.802C120.384 201.018 119.772 201.126 119.052 201.126C118.332 201.126 117.702 201.006 117.162 200.766C116.622 200.514 116.202 200.172 115.902 199.74C115.614 199.296 115.47 198.798 115.47 198.246C115.47 197.382 115.788 196.692 116.424 196.176C117.072 195.648 118.086 195.384 119.466 195.384H121.95V195.24C121.95 194.568 121.746 194.052 121.338 193.692C120.942 193.332 120.348 193.152 119.556 193.152C119.016 193.152 118.482 193.236 117.954 193.404C117.438 193.572 117 193.806 116.64 194.106L115.758 192.468C116.262 192.084 116.868 191.79 117.576 191.586C118.284 191.382 119.034 191.28 119.826 191.28ZM119.52 199.488C120.084 199.488 120.582 199.362 121.014 199.11C121.458 198.846 121.77 198.474 121.95 197.994V196.878H119.628C118.332 196.878 117.684 197.304 117.684 198.156C117.684 198.564 117.846 198.888 118.17 199.128C118.494 199.368 118.944 199.488 119.52 199.488ZM142.219 199.092V203.142H140.113V201H132.697V203.142H130.609V199.092H131.059C131.671 199.068 132.085 198.678 132.301 197.922C132.529 197.154 132.679 196.074 132.751 194.682L132.877 191.388H140.797V199.092H142.219ZM134.803 194.844C134.755 195.948 134.665 196.848 134.533 197.544C134.401 198.24 134.161 198.756 133.813 199.092H138.547V193.296H134.857L134.803 194.844ZM153.229 196.248C153.229 196.404 153.217 196.626 153.193 196.914H145.651C145.783 197.622 146.125 198.186 146.677 198.606C147.241 199.014 147.937 199.218 148.765 199.218C149.821 199.218 150.691 198.87 151.375 198.174L152.581 199.56C152.149 200.076 151.603 200.466 150.943 200.73C150.283 200.994 149.539 201.126 148.711 201.126C147.655 201.126 146.725 200.916 145.921 200.496C145.117 200.076 144.493 199.494 144.049 198.75C143.617 197.994 143.401 197.142 143.401 196.194C143.401 195.258 143.611 194.418 144.031 193.674C144.463 192.918 145.057 192.33 145.813 191.91C146.569 191.49 147.421 191.28 148.369 191.28C149.305 191.28 150.139 191.49 150.871 191.91C151.615 192.318 152.191 192.9 152.599 193.656C153.019 194.4 153.229 195.264 153.229 196.248ZM148.369 193.08C147.649 193.08 147.037 193.296 146.533 193.728C146.041 194.148 145.741 194.712 145.633 195.42H151.087C150.991 194.724 150.697 194.16 150.205 193.728C149.713 193.296 149.101 193.08 148.369 193.08ZM162.952 193.296H159.586V201H157.336V193.296H153.952V191.388H162.952V193.296ZM168.166 191.28C169.582 191.28 170.662 191.622 171.406 192.306C172.162 192.978 172.54 193.998 172.54 195.366V201H170.416V199.83C170.14 200.25 169.744 200.574 169.228 200.802C168.724 201.018 168.112 201.126 167.392 201.126C166.672 201.126 166.042 201.006 165.502 200.766C164.962 200.514 164.542 200.172 164.242 199.74C163.954 199.296 163.81 198.798 163.81 198.246C163.81 197.382 164.128 196.692 164.764 196.176C165.412 195.648 166.426 195.384 167.806 195.384H170.29V195.24C170.29 194.568 170.086 194.052 169.678 193.692C169.282 193.332 168.688 193.152 167.896 193.152C167.356 193.152 166.822 193.236 166.294 193.404C165.778 193.572 165.34 193.806 164.98 194.106L164.098 192.468C164.602 192.084 165.208 191.79 165.916 191.586C166.624 191.382 167.374 191.28 168.166 191.28ZM167.86 199.488C168.424 199.488 168.922 199.362 169.354 199.11C169.798 198.846 170.11 198.474 170.29 197.994V196.878H167.968C166.672 196.878 166.024 197.304 166.024 198.156C166.024 198.564 166.186 198.888 166.51 199.128C166.834 199.368 167.284 199.488 167.86 199.488ZM184.037 191.388V201H181.787V193.296H178.187L178.097 195.204C178.037 196.476 177.917 197.544 177.737 198.408C177.569 199.26 177.275 199.938 176.855 200.442C176.447 200.934 175.883 201.18 175.163 201.18C174.827 201.18 174.413 201.114 173.921 200.982L174.029 199.092C174.197 199.128 174.341 199.146 174.461 199.146C174.917 199.146 175.259 198.966 175.487 198.606C175.715 198.234 175.859 197.796 175.919 197.292C175.991 196.776 176.051 196.044 176.099 195.096L176.261 191.388H184.037ZM196.067 196.248C196.067 196.404 196.055 196.626 196.031 196.914H188.489C188.621 197.622 188.963 198.186 189.515 198.606C190.079 199.014 190.775 199.218 191.603 199.218C192.659 199.218 193.529 198.87 194.213 198.174L195.419 199.56C194.987 200.076 194.441 200.466 193.781 200.73C193.121 200.994 192.377 201.126 191.549 201.126C190.493 201.126 189.563 200.916 188.759 200.496C187.955 200.076 187.331 199.494 186.887 198.75C186.455 197.994 186.239 197.142 186.239 196.194C186.239 195.258 186.449 194.418 186.869 193.674C187.301 192.918 187.895 192.33 188.651 191.91C189.407 191.49 190.259 191.28 191.207 191.28C192.143 191.28 192.977 191.49 193.709 191.91C194.453 192.318 195.029 192.9 195.437 193.656C195.857 194.4 196.067 195.264 196.067 196.248ZM191.207 193.08C190.487 193.08 189.875 193.296 189.371 193.728C188.879 194.148 188.579 194.712 188.471 195.42H193.925C193.829 194.724 193.535 194.16 193.043 193.728C192.551 193.296 191.939 193.08 191.207 193.08ZM198.528 191.388H200.778V197.724L206.088 191.388H208.14V201H205.89V194.664L200.598 201H198.528V191.388ZM203.19 190.254C202.218 190.254 201.474 190.032 200.958 189.588C200.454 189.132 200.196 188.472 200.184 187.608H201.678C201.69 188.04 201.822 188.382 202.074 188.634C202.338 188.886 202.704 189.012 203.172 189.012C203.628 189.012 203.988 188.886 204.252 188.634C204.528 188.382 204.672 188.04 204.684 187.608H206.214C206.202 188.472 205.938 189.132 205.422 189.588C204.906 190.032 204.162 190.254 203.19 190.254Z" fill="#C6C6C6"/>
<defs>
<clipPath id="clip0">
<rect width="82" height="82" fill="white" transform="translate(94 40)"/>
</clipPath>
</defs>
</svg>
